<svg xmlns="http://www.w3.org/2000/svg" xmlns:xlink="http://www.w3.org/1999/xlink" width="500" zoomAndPan="magnify" viewBox="0 0 375 374.999991" height="500" preserveAspectRatio="xMidYMid meet" version="1.0"><defs><clipPath id="eb0aac7394"><path d="M 19 83 L 73 83 L 73 152 L 19 152 Z M 19 83 " clip-rule="nonzero"/></clipPath><clipPath id="c6004159f9"><path d="M -3.78125 100.757812 L 168.6875 27.816406 L 253.847656 229.1875 L 81.378906 302.125 Z M -3.78125 100.757812 " clip-rule="nonzero"/></clipPath><clipPath id="6ba67d2bec"><path d="M -3.78125 100.757812 L 168.6875 27.816406 L 253.847656 229.1875 L 81.378906 302.125 Z M -3.78125 100.757812 " clip-rule="nonzero"/></clipPath><clipPath id="39a83f24c4"><path d="M 18 82 L 74 82 L 74 153 L 18 153 Z M 18 82 " clip-rule="nonzero"/></clipPath><clipPath id="cfd39cf3ce"><path d="M -3.78125 100.757812 L 168.6875 27.816406 L 253.847656 229.1875 L 81.378906 302.125 Z M -3.78125 100.757812 " clip-rule="nonzero"/></clipPath><clipPath id="d92de451eb"><path d="M -3.78125 100.757812 L 168.6875 27.816406 L 253.847656 229.1875 L 81.378906 302.125 Z M -3.78125 100.757812 " clip-rule="nonzero"/></clipPath><clipPath id="8452c9a108"><path d="M 19 150 L 139 150 L 139 278 L 19 278 Z M 19 150 " clip-rule="nonzero"/></clipPath><clipPath id="f313229826"><path d="M -3.78125 100.757812 L 168.6875 27.816406 L 253.847656 229.1875 L 81.378906 302.125 Z M -3.78125 100.757812 " clip-rule="nonzero"/></clipPath><clipPath id="8de90fc2e7"><path d="M -3.78125 100.757812 L 168.6875 27.816406 L 253.847656 229.1875 L 81.378906 302.125 Z M -3.78125 100.757812 " clip-rule="nonzero"/></clipPath><clipPath id="8b0a9fde10"><path d="M 18 149 L 140 149 L 140 279 L 18 279 Z M 18 149 " clip-rule="nonzero"/></clipPath><clipPath id="a5f4e0bc91"><path d="M -3.78125 100.757812 L 168.6875 27.816406 L 253.847656 229.1875 L 81.378906 302.125 Z M -3.78125 100.757812 " clip-rule="nonzero"/></clipPath><clipPath id="aaf5becc4d"><path d="M -3.78125 100.757812 L 168.6875 27.816406 L 253.847656 229.1875 L 81.378906 302.125 Z M -3.78125 100.757812 " clip-rule="nonzero"/></clipPath><clipPath id="2251919b42"><path d="M 22 83 L 72 83 L 72 152 L 22 152 Z M 22 83 " clip-rule="nonzero"/></clipPath><clipPath id="73cf8655c0"><path d="M -3.78125 100.757812 L 168.6875 27.816406 L 253.847656 229.1875 L 81.378906 302.125 Z M -3.78125 100.757812 " clip-rule="nonzero"/></clipPath><clipPath id="0cda4aba83"><path d="M -3.78125 100.757812 L 168.6875 27.816406 L 253.847656 229.1875 L 81.378906 302.125 Z M -3.78125 100.757812 " clip-rule="nonzero"/></clipPath><clipPath id="cf5c2c8049"><path d="M 21 82 L 73 82 L 73 153 L 21 153 Z M 21 82 " clip-rule="nonzero"/></clipPath><clipPath id="877400faa2"><path d="M -3.78125 100.757812 L 168.6875 27.816406 L 253.847656 229.1875 L 81.378906 302.125 Z M -3.78125 100.757812 " clip-rule="nonzero"/></clipPath><clipPath id="84fa984a95"><path d="M -3.78125 100.757812 L 168.6875 27.816406 L 253.847656 229.1875 L 81.378906 302.125 Z M -3.78125 100.757812 " clip-rule="nonzero"/></clipPath><clipPath id="addb863680"><path d="M 32 64 L 238 64 L 238 277 L 32 277 Z M 32 64 " clip-rule="nonzero"/></clipPath><clipPath id="fb691bf889"><path d="M -3.78125 100.757812 L 168.6875 27.816406 L 253.847656 229.1875 L 81.378906 302.125 Z M -3.78125 100.757812 " clip-rule="nonzero"/></clipPath><clipPath id="137eafdc35"><path d="M -3.78125 100.757812 L 168.6875 27.816406 L 253.847656 229.1875 L 81.378906 302.125 Z M -3.78125 100.757812 " clip-rule="nonzero"/></clipPath><clipPath id="67d11cebb0"><path d="M 31 63 L 239 63 L 239 278 L 31 278 Z M 31 63 " clip-rule="nonzero"/></clipPath><clipPath id="24167da1e5"><path d="M -3.78125 100.757812 L 168.6875 27.816406 L 253.847656 229.1875 L 81.378906 302.125 Z M -3.78125 100.757812 " clip-rule="nonzero"/></clipPath><clipPath id="4ccbab8762"><path d="M -3.78125 100.757812 L 168.6875 27.816406 L 253.847656 229.1875 L 81.378906 302.125 Z M -3.78125 100.757812 " clip-rule="nonzero"/></clipPath><clipPath id="23d387be95"><path d="M 25 67 L 129 67 L 129 151 L 25 151 Z M 25 67 " clip-rule="nonzero"/></clipPath><clipPath id="335e46446c"><path d="M -3.78125 100.757812 L 168.6875 27.816406 L 253.847656 229.1875 L 81.378906 302.125 Z M -3.78125 100.757812 " clip-rule="nonzero"/></clipPath><clipPath id="b39ab12aba"><path d="M -3.78125 100.757812 L 168.6875 27.816406 L 253.847656 229.1875 L 81.378906 302.125 Z M -3.78125 100.757812 " clip-rule="nonzero"/></clipPath><clipPath id="53d45cc925"><path d="M 24 65 L 130 65 L 130 152 L 24 152 Z M 24 65 " clip-rule="nonzero"/></clipPath><clipPath id="f9139570c9"><path d="M -3.78125 100.757812 L 168.6875 27.816406 L 253.847656 229.1875 L 81.378906 302.125 Z M -3.78125 100.757812 " clip-rule="nonzero"/></clipPath><clipPath id="e6fb77db15"><path d="M -3.78125 100.757812 L 168.6875 27.816406 L 253.847656 229.1875 L 81.378906 302.125 Z M -3.78125 100.757812 " clip-rule="nonzero"/></clipPath><clipPath id="91d50fd16c"><path d="M 66 99 L 161 99 L 161 191 L 66 191 Z M 66 99 " clip-rule="nonzero"/></clipPath><clipPath id="4c1ef75348"><path d="M -3.78125 100.757812 L 168.6875 27.816406 L 253.847656 229.1875 L 81.378906 302.125 Z M -3.78125 100.757812 " clip-rule="nonzero"/></clipPath><clipPath id="19a3ff0206"><path d="M -3.78125 100.757812 L 168.6875 27.816406 L 253.847656 229.1875 L 81.378906 302.125 Z M -3.78125 100.757812 " clip-rule="nonzero"/></clipPath><clipPath id="6fcd522ade"><path d="M 65 98 L 162 98 L 162 193 L 65 193 Z M 65 98 " clip-rule="nonzero"/></clipPath><clipPath id="b801281b4c"><path d="M -3.78125 100.757812 L 168.6875 27.816406 L 253.847656 229.1875 L 81.378906 302.125 Z M -3.78125 100.757812 " clip-rule="nonzero"/></clipPath><clipPath id="ae0bda431c"><path d="M -3.78125 100.757812 L 168.6875 27.816406 L 253.847656 229.1875 L 81.378906 302.125 Z M -3.78125 100.757812 " clip-rule="nonzero"/></clipPath><clipPath id="1d5290612d"><path d="M 150 46 L 363 46 L 363 259 L 150 259 Z M 150 46 " clip-rule="nonzero"/></clipPath><clipPath id="a321c60c04"><path d="M 233.910156 34.28125 L 371.019531 114.628906 L 285.042969 261.34375 L 147.933594 180.996094 Z M 233.910156 34.28125 " clip-rule="nonzero"/></clipPath><clipPath id="b50d73cf47"><path d="M 233.910156 34.28125 L 371.019531 114.628906 L 285.042969 261.34375 L 147.933594 180.996094 Z M 233.910156 34.28125 " clip-rule="nonzero"/></clipPath><clipPath id="4a3d1b6f99"><path d="M 208 46 L 363 46 L 363 158 L 208 158 Z M 208 46 " clip-rule="nonzero"/></clipPath><clipPath id="d8111a5678"><path d="M 233.910156 34.28125 L 371.019531 114.628906 L 285.042969 261.34375 L 147.933594 180.996094 Z M 233.910156 34.28125 " clip-rule="nonzero"/></clipPath><clipPath id="d97f69213a"><path d="M 233.910156 34.28125 L 371.019531 114.628906 L 285.042969 261.34375 L 147.933594 180.996094 Z M 233.910156 34.28125 " clip-rule="nonzero"/></clipPath><clipPath id="7a2addaeac"><path d="M 242 45 L 259 45 L 259 67 L 242 67 Z M 242 45 " clip-rule="nonzero"/></clipPath><clipPath id="781aafa573"><path d="M 233.910156 34.28125 L 371.019531 114.628906 L 285.042969 261.34375 L 147.933594 180.996094 Z M 233.910156 34.28125 " clip-rule="nonzero"/></clipPath><clipPath id="9c7d173953"><path d="M 233.910156 34.28125 L 371.019531 114.628906 L 285.042969 261.34375 L 147.933594 180.996094 Z M 233.910156 34.28125 " clip-rule="nonzero"/></clipPath><clipPath id="805649ac16"><path d="M 255 53 L 272 53 L 272 75 L 255 75 Z M 255 53 " clip-rule="nonzero"/></clipPath><clipPath id="aae86b507a"><path d="M 233.910156 34.28125 L 371.019531 114.628906 L 285.042969 261.34375 L 147.933594 180.996094 Z M 233.910156 34.28125 " clip-rule="nonzero"/></clipPath><clipPath id="55ce233199"><path d="M 233.910156 34.28125 L 371.019531 114.628906 L 285.042969 261.34375 L 147.933594 180.996094 Z M 233.910156 34.28125 " clip-rule="nonzero"/></clipPath><clipPath id="9f933fb416"><path d="M 320 91 L 338 91 L 338 113 L 320 113 Z M 320 91 " clip-rule="nonzero"/></clipPath><clipPath id="202d941155"><path d="M 233.910156 34.28125 L 371.019531 114.628906 L 285.042969 261.34375 L 147.933594 180.996094 Z M 233.910156 34.28125 " clip-rule="nonzero"/></clipPath><clipPath id="7afbce0748"><path d="M 233.910156 34.28125 L 371.019531 114.628906 L 285.042969 261.34375 L 147.933594 180.996094 Z M 233.910156 34.28125 " clip-rule="nonzero"/></clipPath><clipPath id="7e901639ce"><path d="M 333 99 L 351 99 L 351 121 L 333 121 Z M 333 99 " clip-rule="nonzero"/></clipPath><clipPath id="3468768fa7"><path d="M 233.910156 34.28125 L 371.019531 114.628906 L 285.042969 261.34375 L 147.933594 180.996094 Z M 233.910156 34.28125 " clip-rule="nonzero"/></clipPath><clipPath id="55caa9de6d"><path d="M 233.910156 34.28125 L 371.019531 114.628906 L 285.042969 261.34375 L 147.933594 180.996094 Z M 233.910156 34.28125 " clip-rule="nonzero"/></clipPath><clipPath id="d42a39bf1e"><path d="M 207 90 L 232 90 L 232 114 L 207 114 Z M 207 90 " clip-rule="nonzero"/></clipPath><clipPath id="4225e295c3"><path d="M 233.910156 34.28125 L 371.019531 114.628906 L 285.042969 261.34375 L 147.933594 180.996094 Z M 233.910156 34.28125 " clip-rule="nonzero"/></clipPath><clipPath id="7bc9a370c5"><path d="M 233.910156 34.28125 L 371.019531 114.628906 L 285.042969 261.34375 L 147.933594 180.996094 Z M 233.910156 34.28125 " clip-rule="nonzero"/></clipPath><clipPath id="cb89ef3fb5"><path d="M 227 102 L 252 102 L 252 126 L 227 126 Z M 227 102 " clip-rule="nonzero"/></clipPath><clipPath id="1e5ebf75cb"><path d="M 233.910156 34.28125 L 371.019531 114.628906 L 285.042969 261.34375 L 147.933594 180.996094 Z M 233.910156 34.28125 " clip-rule="nonzero"/></clipPath><clipPath id="7f77de0756"><path d="M 233.910156 34.28125 L 371.019531 114.628906 L 285.042969 261.34375 L 147.933594 180.996094 Z M 233.910156 34.28125 " clip-rule="nonzero"/></clipPath><clipPath id="f19b553d97"><path d="M 248 114 L 272 114 L 272 138 L 248 138 Z M 248 114 " clip-rule="nonzero"/></clipPath><clipPath id="573adf9de5"><path d="M 233.910156 34.28125 L 371.019531 114.628906 L 285.042969 261.34375 L 147.933594 180.996094 Z M 233.910156 34.28125 " clip-rule="nonzero"/></clipPath><clipPath id="b8d89518b4"><path d="M 233.910156 34.28125 L 371.019531 114.628906 L 285.042969 261.34375 L 147.933594 180.996094 Z M 233.910156 34.28125 " clip-rule="nonzero"/></clipPath><clipPath id="729ea13eee"><path d="M 268 125 L 293 125 L 293 150 L 268 150 Z M 268 125 " clip-rule="nonzero"/></clipPath><clipPath id="6f22200fb5"><path d="M 233.910156 34.28125 L 371.019531 114.628906 L 285.042969 261.34375 L 147.933594 180.996094 Z M 233.910156 34.28125 " clip-rule="nonzero"/></clipPath><clipPath id="0a268d029a"><path d="M 233.910156 34.28125 L 371.019531 114.628906 L 285.042969 261.34375 L 147.933594 180.996094 Z M 233.910156 34.28125 " clip-rule="nonzero"/></clipPath><clipPath id="b039a75d79"><path d="M 288 137 L 313 137 L 313 162 L 288 162 Z M 288 137 " clip-rule="nonzero"/></clipPath><clipPath id="acd84201b5"><path d="M 233.910156 34.28125 L 371.019531 114.628906 L 285.042969 261.34375 L 147.933594 180.996094 Z M 233.910156 34.28125 " clip-rule="nonzero"/></clipPath><clipPath id="0dd05a03aa"><path d="M 233.910156 34.28125 L 371.019531 114.628906 L 285.042969 261.34375 L 147.933594 180.996094 Z M 233.910156 34.28125 " clip-rule="nonzero"/></clipPath><clipPath id="4f34fa8027"><path d="M 309 149 L 333 149 L 333 174 L 309 174 Z M 309 149 " clip-rule="nonzero"/></clipPath><clipPath id="3edd25bc96"><path d="M 233.910156 34.28125 L 371.019531 114.628906 L 285.042969 261.34375 L 147.933594 180.996094 Z M 233.910156 34.28125 " clip-rule="nonzero"/></clipPath><clipPath id="13636f45c7"><path d="M 233.910156 34.28125 L 371.019531 114.628906 L 285.042969 261.34375 L 147.933594 180.996094 Z M 233.910156 34.28125 " clip-rule="nonzero"/></clipPath><clipPath id="e8f67bde1e"><path d="M 195 109 L 220 109 L 220 134 L 195 134 Z M 195 109 " clip-rule="nonzero"/></clipPath><clipPath id="8b84bdc2ad"><path d="M 233.910156 34.28125 L 371.019531 114.628906 L 285.042969 261.34375 L 147.933594 180.996094 Z M 233.910156 34.28125 " clip-rule="nonzero"/></clipPath><clipPath id="27cfe29bb5"><path d="M 233.910156 34.28125 L 371.019531 114.628906 L 285.042969 261.34375 L 147.933594 180.996094 Z M 233.910156 34.28125 " clip-rule="nonzero"/></clipPath><clipPath id="0fe66f318c"><path d="M 216 121 L 240 121 L 240 146 L 216 146 Z M 216 121 " clip-rule="nonzero"/></clipPath><clipPath id="c5c7d237df"><path d="M 233.910156 34.28125 L 371.019531 114.628906 L 285.042969 261.34375 L 147.933594 180.996094 Z M 233.910156 34.28125 " clip-rule="nonzero"/></clipPath><clipPath id="21060b64f4"><path d="M 233.910156 34.28125 L 371.019531 114.628906 L 285.042969 261.34375 L 147.933594 180.996094 Z M 233.910156 34.28125 " clip-rule="nonzero"/></clipPath><clipPath id="8d9ac77199"><path d="M 236 133 L 261 133 L 261 158 L 236 158 Z M 236 133 " clip-rule="nonzero"/></clipPath><clipPath id="407d89ea08"><path d="M 233.910156 34.28125 L 371.019531 114.628906 L 285.042969 261.34375 L 147.933594 180.996094 Z M 233.910156 34.28125 " clip-rule="nonzero"/></clipPath><clipPath id="17c9dd8562"><path d="M 233.910156 34.28125 L 371.019531 114.628906 L 285.042969 261.34375 L 147.933594 180.996094 Z M 233.910156 34.28125 " clip-rule="nonzero"/></clipPath><clipPath id="1f98a23d34"><path d="M 256 145 L 281 145 L 281 170 L 256 170 Z M 256 145 " clip-rule="nonzero"/></clipPath><clipPath id="90e0c710ad"><path d="M 233.910156 34.28125 L 371.019531 114.628906 L 285.042969 261.34375 L 147.933594 180.996094 Z M 233.910156 34.28125 " clip-rule="nonzero"/></clipPath><clipPath id="8eb91283b8"><path d="M 233.910156 34.28125 L 371.019531 114.628906 L 285.042969 261.34375 L 147.933594 180.996094 Z M 233.910156 34.28125 " clip-rule="nonzero"/></clipPath><clipPath id="63a4220c1b"><path d="M 277 157 L 301 157 L 301 182 L 277 182 Z M 277 157 " clip-rule="nonzero"/></clipPath><clipPath id="080ae95a0e"><path d="M 233.910156 34.28125 L 371.019531 114.628906 L 285.042969 261.34375 L 147.933594 180.996094 Z M 233.910156 34.28125 " clip-rule="nonzero"/></clipPath><clipPath id="6a3740ddf6"><path d="M 233.910156 34.28125 L 371.019531 114.628906 L 285.042969 261.34375 L 147.933594 180.996094 Z M 233.910156 34.28125 " clip-rule="nonzero"/></clipPath><clipPath id="28a98b0d89"><path d="M 297 169 L 322 169 L 322 194 L 297 194 Z M 297 169 " clip-rule="nonzero"/></clipPath><clipPath id="cd188c0d45"><path d="M 233.910156 34.28125 L 371.019531 114.628906 L 285.042969 261.34375 L 147.933594 180.996094 Z M 233.910156 34.28125 " clip-rule="nonzero"/></clipPath><clipPath id="6356c99acb"><path d="M 233.910156 34.28125 L 371.019531 114.628906 L 285.042969 261.34375 L 147.933594 180.996094 Z M 233.910156 34.28125 " clip-rule="nonzero"/></clipPath><clipPath id="35c944bd99"><path d="M 184 129 L 208 129 L 208 154 L 184 154 Z M 184 129 " clip-rule="nonzero"/></clipPath><clipPath id="6fe3a1385a"><path d="M 233.910156 34.28125 L 371.019531 114.628906 L 285.042969 261.34375 L 147.933594 180.996094 Z M 233.910156 34.28125 " clip-rule="nonzero"/></clipPath><clipPath id="be12ebf706"><path d="M 233.910156 34.28125 L 371.019531 114.628906 L 285.042969 261.34375 L 147.933594 180.996094 Z M 233.910156 34.28125 " clip-rule="nonzero"/></clipPath><clipPath id="0c389c6e0a"><path d="M 204 141 L 229 141 L 229 166 L 204 166 Z M 204 141 " clip-rule="nonzero"/></clipPath><clipPath id="05457383b4"><path d="M 233.910156 34.28125 L 371.019531 114.628906 L 285.042969 261.34375 L 147.933594 180.996094 Z M 233.910156 34.28125 " clip-rule="nonzero"/></clipPath><clipPath id="788ca2b6ce"><path d="M 233.910156 34.28125 L 371.019531 114.628906 L 285.042969 261.34375 L 147.933594 180.996094 Z M 233.910156 34.28125 " clip-rule="nonzero"/></clipPath><clipPath id="930c6a8a35"><path d="M 224 153 L 249 153 L 249 178 L 224 178 Z M 224 153 " clip-rule="nonzero"/></clipPath><clipPath id="3a8d9b7535"><path d="M 233.910156 34.28125 L 371.019531 114.628906 L 285.042969 261.34375 L 147.933594 180.996094 Z M 233.910156 34.28125 " clip-rule="nonzero"/></clipPath><clipPath id="be0cfd143a"><path d="M 233.910156 34.28125 L 371.019531 114.628906 L 285.042969 261.34375 L 147.933594 180.996094 Z M 233.910156 34.28125 " clip-rule="nonzero"/></clipPath><clipPath id="6dca81e1a6"><path d="M 245 165 L 269 165 L 269 190 L 245 190 Z M 245 165 " clip-rule="nonzero"/></clipPath><clipPath id="63a4894215"><path d="M 233.910156 34.28125 L 371.019531 114.628906 L 285.042969 261.34375 L 147.933594 180.996094 Z M 233.910156 34.28125 " clip-rule="nonzero"/></clipPath><clipPath id="69717d6428"><path d="M 233.910156 34.28125 L 371.019531 114.628906 L 285.042969 261.34375 L 147.933594 180.996094 Z M 233.910156 34.28125 " clip-rule="nonzero"/></clipPath><clipPath id="d370760455"><path d="M 265 177 L 290 177 L 290 202 L 265 202 Z M 265 177 " clip-rule="nonzero"/></clipPath><clipPath id="438fdd7b00"><path d="M 233.910156 34.28125 L 371.019531 114.628906 L 285.042969 261.34375 L 147.933594 180.996094 Z M 233.910156 34.28125 " clip-rule="nonzero"/></clipPath><clipPath id="229461785c"><path d="M 233.910156 34.28125 L 371.019531 114.628906 L 285.042969 261.34375 L 147.933594 180.996094 Z M 233.910156 34.28125 " clip-rule="nonzero"/></clipPath><clipPath id="08c5b34509"><path d="M 286 189 L 310 189 L 310 214 L 286 214 Z M 286 189 " clip-rule="nonzero"/></clipPath><clipPath id="031f3edf15"><path d="M 233.910156 34.28125 L 371.019531 114.628906 L 285.042969 261.34375 L 147.933594 180.996094 Z M 233.910156 34.28125 " clip-rule="nonzero"/></clipPath><clipPath id="8525b05eb5"><path d="M 233.910156 34.28125 L 371.019531 114.628906 L 285.042969 261.34375 L 147.933594 180.996094 Z M 233.910156 34.28125 " clip-rule="nonzero"/></clipPath><clipPath id="53f811864c"><path d="M 171 150 L 196 150 L 196 175 L 171 175 Z M 171 150 " clip-rule="nonzero"/></clipPath><clipPath id="6982559734"><path d="M 233.910156 34.28125 L 371.019531 114.628906 L 285.042969 261.34375 L 147.933594 180.996094 Z M 233.910156 34.28125 " clip-rule="nonzero"/></clipPath><clipPath id="54cc3354a3"><path d="M 233.910156 34.28125 L 371.019531 114.628906 L 285.042969 261.34375 L 147.933594 180.996094 Z M 233.910156 34.28125 " clip-rule="nonzero"/></clipPath><clipPath id="479d7a91e5"><path d="M 192 162 L 216 162 L 216 187 L 192 187 Z M 192 162 " clip-rule="nonzero"/></clipPath><clipPath id="14825b516c"><path d="M 233.910156 34.28125 L 371.019531 114.628906 L 285.042969 261.34375 L 147.933594 180.996094 Z M 233.910156 34.28125 " clip-rule="nonzero"/></clipPath><clipPath id="bf10d36645"><path d="M 233.910156 34.28125 L 371.019531 114.628906 L 285.042969 261.34375 L 147.933594 180.996094 Z M 233.910156 34.28125 " clip-rule="nonzero"/></clipPath><clipPath id="c8ca01f6cd"><path d="M 212 174 L 237 174 L 237 199 L 212 199 Z M 212 174 " clip-rule="nonzero"/></clipPath><clipPath id="307b625ee0"><path d="M 233.910156 34.28125 L 371.019531 114.628906 L 285.042969 261.34375 L 147.933594 180.996094 Z M 233.910156 34.28125 " clip-rule="nonzero"/></clipPath><clipPath id="539802cdf1"><path d="M 233.910156 34.28125 L 371.019531 114.628906 L 285.042969 261.34375 L 147.933594 180.996094 Z M 233.910156 34.28125 " clip-rule="nonzero"/></clipPath><clipPath id="8beaf248e2"><path d="M 232 186 L 257 186 L 257 211 L 232 211 Z M 232 186 " clip-rule="nonzero"/></clipPath><clipPath id="cf1c27aa42"><path d="M 233.910156 34.28125 L 371.019531 114.628906 L 285.042969 261.34375 L 147.933594 180.996094 Z M 233.910156 34.28125 " clip-rule="nonzero"/></clipPath><clipPath id="2eba62796c"><path d="M 233.910156 34.28125 L 371.019531 114.628906 L 285.042969 261.34375 L 147.933594 180.996094 Z M 233.910156 34.28125 " clip-rule="nonzero"/></clipPath><clipPath id="391d52e5b8"><path d="M 253 198 L 278 198 L 278 223 L 253 223 Z M 253 198 " clip-rule="nonzero"/></clipPath><clipPath id="44d3abcf21"><path d="M 233.910156 34.28125 L 371.019531 114.628906 L 285.042969 261.34375 L 147.933594 180.996094 Z M 233.910156 34.28125 " clip-rule="nonzero"/></clipPath><clipPath id="e1f1baf86f"><path d="M 233.910156 34.28125 L 371.019531 114.628906 L 285.042969 261.34375 L 147.933594 180.996094 Z M 233.910156 34.28125 " clip-rule="nonzero"/></clipPath><clipPath id="37bbc0aecb"><path d="M 273 210 L 298 210 L 298 235 L 273 235 Z M 273 210 " clip-rule="nonzero"/></clipPath><clipPath id="a71edbe0e3"><path d="M 233.910156 34.28125 L 371.019531 114.628906 L 285.042969 261.34375 L 147.933594 180.996094 Z M 233.910156 34.28125 " clip-rule="nonzero"/></clipPath><clipPath id="3e43ab100d"><path d="M 233.910156 34.28125 L 371.019531 114.628906 L 285.042969 261.34375 L 147.933594 180.996094 Z M 233.910156 34.28125 " clip-rule="nonzero"/></clipPath><clipPath id="411c33d791"><path d="M 224 86 L 262 86 L 262 127 L 224 127 Z M 224 86 " clip-rule="nonzero"/></clipPath><clipPath id="a8e8d74ebc"><path d="M 156.007812 140.175781 L 251.996094 79.851562 L 312.316406 175.835938 L 216.332031 236.160156 Z M 156.007812 140.175781 " clip-rule="nonzero"/></clipPath><clipPath id="6e90ce5cce"><path d="M 216.292969 236.09375 L 312.277344 175.769531 L 251.953125 79.785156 L 155.96875 140.109375 Z M 216.292969 236.09375 " clip-rule="nonzero"/></clipPath><clipPath id="d3ca7a6c20"><path d="M 216.292969 236.09375 L 312.277344 175.769531 L 251.953125 79.785156 L 155.96875 140.109375 Z M 216.292969 236.09375 " clip-rule="nonzero"/></clipPath><clipPath id="0167ac8443"><path d="M 203 184 L 244 184 L 244 225 L 203 225 Z M 203 184 " clip-rule="nonzero"/></clipPath><clipPath id="e9587d06b2"><path d="M 156.007812 140.175781 L 251.996094 79.851562 L 312.316406 175.835938 L 216.332031 236.160156 Z M 156.007812 140.175781 " clip-rule="nonzero"/></clipPath><clipPath id="4671c38165"><path d="M 216.292969 236.09375 L 312.277344 175.769531 L 251.953125 79.785156 L 155.96875 140.109375 Z M 216.292969 236.09375 " clip-rule="nonzero"/></clipPath><clipPath id="6bdc05e4a3"><path d="M 216.292969 236.09375 L 312.277344 175.769531 L 251.953125 79.785156 L 155.96875 140.109375 Z M 216.292969 236.09375 " clip-rule="nonzero"/></clipPath><clipPath id="78e4b9042f"><path d="M 209 114 L 261 114 L 261 191 L 209 191 Z M 209 114 " clip-rule="nonzero"/></clipPath><clipPath id="13a40fe966"><path d="M 156.007812 140.175781 L 251.996094 79.851562 L 312.316406 175.835938 L 216.332031 236.160156 Z M 156.007812 140.175781 " clip-rule="nonzero"/></clipPath><clipPath id="d2acb70d4a"><path d="M 216.292969 236.09375 L 312.277344 175.769531 L 251.953125 79.785156 L 155.96875 140.109375 Z M 216.292969 236.09375 " clip-rule="nonzero"/></clipPath><clipPath id="28df8edb3f"><path d="M 216.292969 236.09375 L 312.277344 175.769531 L 251.953125 79.785156 L 155.96875 140.109375 Z M 216.292969 236.09375 " clip-rule="nonzero"/></clipPath><clipPath id="0c25e34a41"><path d="M 243 83 L 255 83 L 255 95 L 243 95 Z M 243 83 " clip-rule="nonzero"/></clipPath><clipPath id="fc23035d78"><path d="M 156.007812 140.175781 L 251.996094 79.851562 L 312.316406 175.835938 L 216.332031 236.160156 Z M 156.007812 140.175781 " clip-rule="nonzero"/></clipPath><clipPath id="16b1cc444a"><path d="M 216.292969 236.09375 L 312.277344 175.769531 L 251.953125 79.785156 L 155.96875 140.109375 Z M 216.292969 236.09375 " clip-rule="nonzero"/></clipPath><clipPath id="00f2990bd5"><path d="M 216.292969 236.09375 L 312.277344 175.769531 L 251.953125 79.785156 L 155.96875 140.109375 Z M 216.292969 236.09375 " clip-rule="nonzero"/></clipPath><clipPath id="c20a8a1329"><path d="M 204 182 L 246 182 L 246 213 L 204 213 Z M 204 182 " clip-rule="nonzero"/></clipPath><clipPath id="8009665774"><path d="M 156.007812 140.175781 L 251.996094 79.851562 L 312.316406 175.835938 L 216.332031 236.160156 Z M 156.007812 140.175781 " clip-rule="nonzero"/></clipPath><clipPath id="ca5497cb0c"><path d="M 216.292969 236.09375 L 312.277344 175.769531 L 251.953125 79.785156 L 155.96875 140.109375 Z M 216.292969 236.09375 " clip-rule="nonzero"/></clipPath><clipPath id="4496af6d03"><path d="M 216.292969 236.09375 L 312.277344 175.769531 L 251.953125 79.785156 L 155.96875 140.109375 Z M 216.292969 236.09375 " clip-rule="nonzero"/></clipPath><clipPath id="7b67295679"><path d="M 205 186 L 245 186 L 245 209 L 205 209 Z M 205 186 " clip-rule="nonzero"/></clipPath><clipPath id="11eae04823"><path d="M 156.007812 140.175781 L 251.996094 79.851562 L 312.316406 175.835938 L 216.332031 236.160156 Z M 156.007812 140.175781 " clip-rule="nonzero"/></clipPath><clipPath id="271be533ea"><path d="M 216.292969 236.09375 L 312.277344 175.769531 L 251.953125 79.785156 L 155.96875 140.109375 Z M 216.292969 236.09375 " clip-rule="nonzero"/></clipPath><clipPath id="e8f8523061"><path d="M 216.292969 236.09375 L 312.277344 175.769531 L 251.953125 79.785156 L 155.96875 140.109375 Z M 216.292969 236.09375 " clip-rule="nonzero"/></clipPath><clipPath id="11f49f6455"><path d="M 92 121 L 204 121 L 204 244 L 92 244 Z M 92 121 " clip-rule="nonzero"/></clipPath><clipPath id="457c221a07"><path d="M 90.21875 154.121094 L 153.761719 118.433594 L 205.808594 211.097656 L 142.265625 246.785156 Z M 90.21875 154.121094 " clip-rule="nonzero"/></clipPath><clipPath id="1619b42728"><path d="M 90.21875 154.121094 L 153.761719 118.433594 L 205.808594 211.097656 L 142.265625 246.785156 Z M 90.21875 154.121094 " clip-rule="nonzero"/></clipPath><clipPath id="49b19cc467"><path d="M 105 135 L 161 135 L 161 175 L 105 175 Z M 105 135 " clip-rule="nonzero"/></clipPath><clipPath id="614833ca77"><path d="M 90.21875 154.121094 L 153.761719 118.433594 L 205.808594 211.097656 L 142.265625 246.785156 Z M 90.21875 154.121094 " clip-rule="nonzero"/></clipPath><clipPath id="465e5ea52e"><path d="M 90.21875 154.121094 L 153.761719 118.433594 L 205.808594 211.097656 L 142.265625 246.785156 Z M 90.21875 154.121094 " clip-rule="nonzero"/></clipPath><clipPath id="8c9140089d"><path d="M 118 165 L 171 165 L 171 230 L 118 230 Z M 118 165 " clip-rule="nonzero"/></clipPath><clipPath id="1fa5241b10"><path d="M 90.21875 154.121094 L 153.761719 118.433594 L 205.808594 211.097656 L 142.265625 246.785156 Z M 90.21875 154.121094 " clip-rule="nonzero"/></clipPath><clipPath id="bdf4071fd2"><path d="M 90.21875 154.121094 L 153.761719 118.433594 L 205.808594 211.097656 L 142.265625 246.785156 Z M 90.21875 154.121094 " clip-rule="nonzero"/></clipPath><clipPath id="9d7feb0fc9"><path d="M 97 142 L 190 142 L 190 239 L 97 239 Z M 97 142 " clip-rule="nonzero"/></clipPath><clipPath id="7290b7b958"><path d="M 90.21875 154.121094 L 153.761719 118.433594 L 205.808594 211.097656 L 142.265625 246.785156 Z M 90.21875 154.121094 " clip-rule="nonzero"/></clipPath><clipPath id="7bf4b802d0"><path d="M 90.21875 154.121094 L 153.761719 118.433594 L 205.808594 211.097656 L 142.265625 246.785156 Z M 90.21875 154.121094 " clip-rule="nonzero"/></clipPath><clipPath id="f3516cd6cc"><path d="M 122 141 L 187 141 L 187 219 L 122 219 Z M 122 141 " clip-rule="nonzero"/></clipPath><clipPath id="7f2f3c3248"><path d="M 90.21875 154.121094 L 153.761719 118.433594 L 205.808594 211.097656 L 142.265625 246.785156 Z M 90.21875 154.121094 " clip-rule="nonzero"/></clipPath><clipPath id="1d89e5fc52"><path d="M 90.21875 154.121094 L 153.761719 118.433594 L 205.808594 211.097656 L 142.265625 246.785156 Z M 90.21875 154.121094 " clip-rule="nonzero"/></clipPath><clipPath id="3623063cf3"><path d="M 211 208.558594 L 285 208.558594 L 285 229 L 211 229 Z M 211 208.558594 " clip-rule="nonzero"/></clipPath><clipPath id="385501ea44"><path d="M 146 208.558594 L 194 208.558594 L 194 222 L 146 222 Z M 146 208.558594 " clip-rule="nonzero"/></clipPath><clipPath id="baba9f7210"><path d="M 31 208.558594 L 194 208.558594 L 194 288 L 31 288 Z M 31 208.558594 " clip-rule="nonzero"/></clipPath><clipPath id="23f6c60428"><path d="M 50 208.558594 L 323 208.558594 L 323 228 L 50 228 Z M 50 208.558594 " clip-rule="nonzero"/></clipPath><clipPath id="f367d2e400"><path d="M 62 227 L 311 227 L 311 314.277344 L 62 314.277344 Z M 62 227 " clip-rule="nonzero"/></clipPath><clipPath id="8992bec992"><path d="M 245 208.558594 L 272 208.558594 L 272 248 L 245 248 Z M 245 208.558594 " clip-rule="nonzero"/></clipPath><clipPath id="f1a080a0b3"><path d="M 101 208.558594 L 128 208.558594 L 128 248 L 101 248 Z M 101 208.558594 " clip-rule="nonzero"/></clipPath></defs><g clip-path="url(#eb0aac7394)"><g clip-path="url(#c6004159f9)"><g clip-path="url(#6ba67d2bec)"><path fill="#92bfc5" d="M 19.238281 151.652344 C 26.371094 130.871094 41.023438 83.539062 39.914062 83.613281 C 38.90625 83.675781 62.417969 100.980469 72.328125 111.484375 L 31.351562 150.121094 L 19.238281 151.652344 " fill-opacity="1" fill-rule="nonzero"/></g></g></g><g clip-path="url(#39a83f24c4)"><g clip-path="url(#cfd39cf3ce)"><g clip-path="url(#d92de451eb)"><path fill="#92bfc5" d="M 31.792969 151.167969 C 31.699219 151.210938 31.597656 151.238281 31.496094 151.25 L 19.382812 152.78125 C 18.992188 152.832031 18.601562 152.675781 18.355469 152.371094 C 18.109375 152.066406 18.035156 151.65625 18.160156 151.285156 C 24.90625 131.632812 38.113281 88.960938 38.808594 84.089844 C 38.644531 83.78125 38.707031 83.578125 38.800781 83.289062 C 38.941406 82.839844 39.371094 82.507812 39.839844 82.476562 C 40.222656 82.453125 40.621094 82.632812 40.851562 82.9375 C 40.914062 83.015625 40.972656 83.09375 41.015625 83.230469 C 41.796875 83.980469 44.605469 86.226562 47.558594 88.589844 C 55.234375 94.726562 66.835938 104.003906 73.15625 110.703125 C 73.363281 110.921875 73.476562 111.214844 73.464844 111.519531 C 73.457031 111.820312 73.328125 112.105469 73.109375 112.3125 L 32.132812 150.949219 C 32.035156 151.042969 31.917969 151.117188 31.792969 151.167969 Z M 20.902344 150.296875 L 30.839844 149.039062 L 70.710938 111.445312 C 64.351562 104.929688 53.453125 96.214844 46.136719 90.367188 C 43.542969 88.289062 41.828125 86.921875 40.710938 85.976562 C 40.015625 89.132812 38.136719 95.847656 33.605469 110.636719 C 29.285156 124.71875 24.289062 140.324219 20.902344 150.296875 Z M 20.902344 150.296875 " fill-opacity="1" fill-rule="nonzero"/></g></g></g><g clip-path="url(#8452c9a108)"><g clip-path="url(#f313229826)"><g clip-path="url(#8de90fc2e7)"><path fill="#92bfc5" d="M 138.445312 276.757812 L 125.085938 277.308594 L 19.320312 151.839844 L 32.828125 150.332031 " fill-opacity="1" fill-rule="nonzero"/></g></g></g><g clip-path="url(#8b0a9fde10)"><g clip-path="url(#a5f4e0bc91)"><g clip-path="url(#aaf5becc4d)"><path fill="#92bfc5" d="M 138.890625 277.804688 C 138.765625 277.855469 138.632812 277.890625 138.492188 277.894531 L 125.132812 278.445312 C 124.78125 278.460938 124.441406 278.3125 124.214844 278.042969 L 18.453125 152.574219 C 18.179688 152.25 18.109375 151.808594 18.265625 151.417969 C 18.421875 151.027344 18.777344 150.753906 19.195312 150.707031 L 32.703125 149.203125 C 33.328125 149.132812 33.890625 149.582031 33.960938 150.207031 C 34.027344 150.832031 33.582031 151.394531 32.953125 151.464844 L 21.5625 152.734375 L 125.597656 276.148438 L 138.398438 275.621094 C 139.027344 275.59375 139.554688 276.082031 139.582031 276.710938 C 139.601562 277.195312 139.3125 277.625 138.890625 277.804688 Z M 138.890625 277.804688 " fill-opacity="1" fill-rule="nonzero"/></g></g></g><g clip-path="url(#2251919b42)"><g clip-path="url(#73cf8655c0)"><g clip-path="url(#0cda4aba83)"><path fill="#f5eaf9" d="M 22.925781 151.4375 C 32.386719 128.753906 41.277344 94.359375 39.910156 83.597656 C 46.160156 87.65625 66.738281 105.351562 71.382812 110.5 " fill-opacity="1" fill-rule="nonzero"/></g></g></g><g clip-path="url(#cf5c2c8049)"><g clip-path="url(#877400faa2)"><g clip-path="url(#84fa984a95)"><path fill="#92bfc5" d="M 23.367188 152.484375 C 23.097656 152.601562 22.78125 152.609375 22.488281 152.488281 C 21.90625 152.246094 21.632812 151.578125 21.875 151 C 31.539062 127.832031 40.070312 93.886719 38.78125 83.742188 C 38.722656 83.300781 38.929688 82.867188 39.304688 82.632812 C 39.679688 82.398438 40.15625 82.402344 40.527344 82.644531 C 47.054688 86.882812 67.71875 104.738281 72.230469 109.738281 C 72.652344 110.207031 72.613281 110.925781 72.148438 111.347656 C 71.679688 111.769531 70.960938 111.730469 70.539062 111.265625 C 66.464844 106.746094 49.003906 91.574219 41.167969 85.859375 C 41.179688 97.664062 34.125 127.539062 23.976562 151.875 C 23.855469 152.160156 23.632812 152.375 23.367188 152.484375 Z M 23.367188 152.484375 " fill-opacity="1" fill-rule="nonzero"/></g></g></g><g clip-path="url(#addb863680)"><g clip-path="url(#fb691bf889)"><g clip-path="url(#137eafdc35)"><path fill="#92bfc5" d="M 32.828125 150.332031 C 62.472656 121.027344 99.628906 91.363281 131.3125 64.273438 C 141.886719 78.554688 237.070312 191.621094 237.164062 193.039062 C 237.324219 195.34375 139.148438 276.738281 138.445312 276.757812 C 137.78125 276.777344 66.59375 188.917969 32.828125 150.332031 Z M 32.828125 150.332031 " fill-opacity="1" fill-rule="nonzero"/></g></g></g><g clip-path="url(#67d11cebb0)"><g clip-path="url(#24167da1e5)"><g clip-path="url(#4ccbab8762)"><path fill="#92bfc5" d="M 138.777344 277.832031 C 138.644531 277.890625 138.566406 277.890625 138.476562 277.894531 C 137.757812 277.914062 137.757812 277.914062 130.683594 269.382812 C 126.4375 264.269531 120.46875 257.023438 113.457031 248.507812 C 89.488281 219.402344 53.269531 175.417969 31.972656 151.082031 C 31.574219 150.628906 31.597656 149.945312 32.027344 149.523438 C 54.195312 127.609375 80.359375 105.660156 105.660156 84.433594 C 114.34375 77.148438 122.550781 70.265625 130.570312 63.40625 C 130.8125 63.203125 131.125 63.105469 131.4375 63.140625 C 131.75 63.175781 132.035156 63.34375 132.222656 63.59375 C 137.734375 71.039062 166.828125 106.03125 192.492188 136.902344 C 236.417969 189.738281 238.242188 192.136719 238.300781 192.960938 C 238.335938 193.5 238.046875 193.925781 237.460938 194.570312 C 232.933594 199.550781 203.011719 224.78125 185.578125 239.378906 C 174.660156 248.515625 163.039062 258.175781 153.691406 265.878906 C 141.542969 275.886719 139.449219 277.546875 138.777344 277.832031 Z M 34.390625 150.390625 C 55.796875 174.90625 91.5 218.261719 115.214844 247.058594 C 126.757812 261.078125 136.128906 272.457031 138.582031 275.25 C 142.71875 272.023438 163.664062 254.78125 187.066406 235.160156 C 215.09375 211.660156 233.023438 196.15625 235.804688 193.027344 C 232.769531 188.910156 211.421875 163.234375 190.742188 138.359375 C 166.035156 108.640625 138.15625 75.105469 131.128906 65.921875 C 123.394531 72.527344 115.480469 79.167969 107.121094 86.179688 C 82.144531 107.132812 56.328125 128.789062 34.390625 150.390625 Z M 236.128906 192.617188 Z M 236.128906 192.617188 " fill-opacity="1" fill-rule="nonzero"/></g></g></g><g clip-path="url(#23d387be95)"><g clip-path="url(#335e46446c)"><g clip-path="url(#b39ab12aba)"><path fill="#f5eaf9" d="M 128.003906 67.09375 C 92.746094 95.957031 60.222656 123.957031 32.828125 150.332031 L 25.867188 150.800781 C 41.632812 128.371094 104.601562 76.230469 128.003906 67.09375 Z M 128.003906 67.09375 " fill-opacity="1" fill-rule="nonzero"/></g></g></g><g clip-path="url(#53d45cc925)"><g clip-path="url(#f9139570c9)"><g clip-path="url(#e6fb77db15)"><path fill="#92bfc5" d="M 33.269531 151.382812 C 33.15625 151.429688 33.03125 151.460938 32.902344 151.46875 L 25.941406 151.933594 C 25.503906 151.964844 25.089844 151.738281 24.875 151.359375 C 24.660156 150.976562 24.683594 150.503906 24.933594 150.144531 C 41.28125 126.894531 104.5625 75 127.589844 66.035156 C 128.109375 65.832031 128.703125 66.035156 128.984375 66.519531 C 129.265625 67.003906 129.15625 67.621094 128.722656 67.972656 C 89.550781 100.042969 58.4375 127.25 33.617188 151.152344 C 33.515625 151.25 33.398438 151.328125 33.269531 151.382812 Z M 28.226562 149.5 L 32.339844 149.226562 C 55.511719 126.933594 84.128906 101.777344 119.621094 72.507812 C 93.335938 87.472656 44.34375 128.324219 28.226562 149.5 Z M 28.226562 149.5 " fill-opacity="1" fill-rule="nonzero"/></g></g></g><g clip-path="url(#91d50fd16c)"><g clip-path="url(#4c1ef75348)"><g clip-path="url(#19a3ff0206)"><path fill="#f5eaf9" d="M 160.550781 136.726562 L 97.070312 190.957031 L 66.476562 153.621094 L 129.957031 99.390625 Z M 160.550781 136.726562 " fill-opacity="1" fill-rule="nonzero"/></g></g></g><g clip-path="url(#6fcd522ade)"><g clip-path="url(#b801281b4c)"><g clip-path="url(#ae0bda431c)"><path fill="#92bfc5" d="M 97.515625 192.007812 C 97.34375 192.078125 97.15625 192.109375 96.972656 192.089844 C 96.667969 192.066406 96.386719 191.914062 96.191406 191.679688 L 65.59375 154.339844 C 65.203125 153.863281 65.265625 153.15625 65.734375 152.753906 L 129.214844 98.523438 C 129.449219 98.324219 129.75 98.226562 130.054688 98.253906 C 130.359375 98.28125 130.640625 98.429688 130.835938 98.667969 L 161.429688 136.007812 C 161.824219 136.484375 161.761719 137.191406 161.289062 137.59375 L 97.8125 191.824219 C 97.722656 191.898438 97.621094 191.960938 97.515625 192.007812 Z M 68.0625 153.761719 L 97.214844 189.339844 L 158.964844 136.585938 L 129.8125 101.007812 Z M 68.0625 153.761719 " fill-opacity="1" fill-rule="nonzero"/></g></g></g><g clip-path="url(#1d5290612d)"><g clip-path="url(#a321c60c04)"><g clip-path="url(#b50d73cf47)"><path fill="#ffffff" d="M 278.542969 257.484375 L 154.667969 184.894531 C 150.984375 182.738281 149.75 178 151.90625 174.316406 L 224.496094 50.445312 C 226.65625 46.765625 231.394531 45.527344 235.074219 47.683594 L 358.945312 120.273438 C 362.628906 122.433594 363.863281 127.171875 361.707031 130.851562 L 289.117188 254.722656 C 286.957031 258.410156 282.222656 259.644531 278.542969 257.484375 Z M 278.542969 257.484375 " fill-opacity="1" fill-rule="nonzero"/></g></g></g><g clip-path="url(#4a3d1b6f99)"><g clip-path="url(#d8111a5678)"><g clip-path="url(#d97f69213a)"><path fill="#3d5366" d="M 346.089844 157.503906 L 208.878906 77.101562 L 224.5 50.449219 C 226.65625 46.765625 231.394531 45.527344 235.078125 47.6875 L 358.949219 120.273438 C 362.628906 122.433594 363.867188 127.171875 361.710938 130.855469 L 346.089844 157.507812 Z M 346.089844 157.503906 " fill-opacity="1" fill-rule="nonzero"/></g></g></g><g clip-path="url(#7a2addaeac)"><g clip-path="url(#781aafa573)"><g clip-path="url(#9c7d173953)"><path fill="#3d3d3d" d="M 246.964844 66.503906 L 243.628906 64.546875 C 242.507812 63.890625 242.128906 62.445312 242.789062 61.324219 L 251.125 47.097656 C 251.78125 45.972656 253.226562 45.597656 254.351562 46.253906 L 257.6875 48.210938 C 258.808594 48.867188 259.1875 50.3125 258.527344 51.433594 L 250.191406 65.660156 C 249.535156 66.785156 248.089844 67.160156 246.964844 66.503906 Z M 246.964844 66.503906 " fill-opacity="1" fill-rule="nonzero"/></g></g></g><g clip-path="url(#805649ac16)"><g clip-path="url(#aae86b507a)"><g clip-path="url(#55ce233199)"><path fill="#3d3d3d" d="M 260.003906 74.144531 L 256.667969 72.1875 C 255.542969 71.53125 255.167969 70.085938 255.824219 68.960938 L 264.160156 54.734375 C 264.820312 53.613281 266.265625 53.234375 267.386719 53.894531 L 270.722656 55.847656 C 271.84375 56.507812 272.222656 57.953125 271.566406 59.074219 L 263.226562 73.300781 C 262.570312 74.425781 261.125 74.800781 260.003906 74.144531 Z M 260.003906 74.144531 " fill-opacity="1" fill-rule="nonzero"/></g></g></g><g clip-path="url(#9f933fb416)"><g clip-path="url(#202d941155)"><g clip-path="url(#7afbce0748)"><path fill="#3d3d3d" d="M 325.183594 112.339844 L 321.847656 110.386719 C 320.726562 109.726562 320.347656 108.28125 321.003906 107.160156 L 329.34375 92.933594 C 330 91.808594 331.445312 91.433594 332.566406 92.089844 L 335.902344 94.046875 C 337.027344 94.703125 337.402344 96.148438 336.746094 97.269531 L 328.410156 111.5 C 327.75 112.621094 326.308594 113 325.183594 112.339844 Z M 325.183594 112.339844 " fill-opacity="1" fill-rule="nonzero"/></g></g></g><g clip-path="url(#7e901639ce)"><g clip-path="url(#3468768fa7)"><g clip-path="url(#55caa9de6d)"><path fill="#3d3d3d" d="M 338.21875 119.980469 L 334.882812 118.023438 C 333.761719 117.367188 333.382812 115.921875 334.042969 114.800781 L 342.378906 100.570312 C 343.035156 99.449219 344.480469 99.074219 345.605469 99.730469 L 348.941406 101.683594 C 350.0625 102.34375 350.441406 103.789062 349.78125 104.910156 L 341.445312 119.136719 C 340.789062 120.261719 339.34375 120.640625 338.21875 119.980469 Z M 338.21875 119.980469 " fill-opacity="1" fill-rule="nonzero"/></g></g></g><g clip-path="url(#d42a39bf1e)"><g clip-path="url(#4225e295c3)"><g clip-path="url(#7bc9a370c5)"><path fill="#bababa" d="M 220.503906 113.539062 L 208.445312 106.472656 C 207.355469 105.832031 206.988281 104.429688 207.628906 103.339844 L 214.695312 91.277344 C 215.332031 90.191406 216.734375 89.820312 217.828125 90.460938 L 229.886719 97.527344 C 230.976562 98.167969 231.34375 99.570312 230.703125 100.660156 L 223.636719 112.71875 C 222.996094 113.8125 221.597656 114.179688 220.503906 113.539062 Z M 220.503906 113.539062 " fill-opacity="1" fill-rule="nonzero"/></g></g></g><g clip-path="url(#cb89ef3fb5)"><g clip-path="url(#1e5ebf75cb)"><g clip-path="url(#7f77de0756)"><path fill="#bababa" d="M 240.894531 125.488281 L 228.835938 118.417969 C 227.746094 117.78125 227.378906 116.378906 228.015625 115.285156 L 235.085938 103.226562 C 235.722656 102.136719 237.125 101.769531 238.214844 102.410156 L 250.277344 109.476562 C 251.367188 110.113281 251.734375 111.515625 251.09375 112.609375 L 244.027344 124.667969 C 243.386719 125.757812 241.984375 126.125 240.894531 125.488281 Z M 240.894531 125.488281 " fill-opacity="1" fill-rule="nonzero"/></g></g></g><g clip-path="url(#f19b553d97)"><g clip-path="url(#573adf9de5)"><g clip-path="url(#b8d89518b4)"><path fill="#bababa" d="M 261.28125 137.433594 L 249.222656 130.367188 C 248.132812 129.726562 247.765625 128.324219 248.402344 127.234375 L 255.472656 115.175781 C 256.109375 114.085938 257.511719 113.714844 258.601562 114.355469 L 270.664062 121.421875 C 271.753906 122.0625 272.121094 123.464844 271.480469 124.554688 L 264.414062 136.617188 C 263.773438 137.707031 262.371094 138.070312 261.28125 137.433594 Z M 261.28125 137.433594 " fill-opacity="1" fill-rule="nonzero"/></g></g></g><g clip-path="url(#729ea13eee)"><g clip-path="url(#6f22200fb5)"><g clip-path="url(#0a268d029a)"><path fill="#bababa" d="M 281.667969 149.378906 L 269.609375 142.3125 C 268.519531 141.675781 268.152344 140.273438 268.789062 139.179688 L 275.859375 127.121094 C 276.496094 126.03125 277.898438 125.664062 278.988281 126.304688 L 291.050781 133.371094 C 292.140625 134.007812 292.507812 135.410156 291.867188 136.503906 L 284.800781 148.5625 C 284.160156 149.652344 282.757812 150.019531 281.667969 149.378906 Z M 281.667969 149.378906 " fill-opacity="1" fill-rule="nonzero"/></g></g></g><g clip-path="url(#b039a75d79)"><g clip-path="url(#acd84201b5)"><g clip-path="url(#0dd05a03aa)"><path fill="#bababa" d="M 302.054688 161.328125 L 289.996094 154.261719 C 288.90625 153.621094 288.539062 152.21875 289.175781 151.128906 L 296.246094 139.066406 C 296.882812 137.976562 298.285156 137.609375 299.375 138.25 L 311.4375 145.316406 C 312.527344 145.957031 312.894531 147.359375 312.253906 148.449219 L 305.1875 160.507812 C 304.546875 161.601562 303.144531 161.964844 302.054688 161.328125 Z M 302.054688 161.328125 " fill-opacity="1" fill-rule="nonzero"/></g></g></g><g clip-path="url(#4f34fa8027)"><g clip-path="url(#3edd25bc96)"><g clip-path="url(#13636f45c7)"><path fill="#bababa" d="M 322.441406 173.273438 L 310.382812 166.207031 C 309.292969 165.566406 308.925781 164.164062 309.5625 163.074219 L 316.632812 151.015625 C 317.269531 149.925781 318.671875 149.558594 319.765625 150.195312 L 331.824219 157.265625 C 332.914062 157.902344 333.28125 159.304688 332.640625 160.394531 L 325.574219 172.457031 C 324.933594 173.546875 323.53125 173.914062 322.441406 173.273438 Z M 322.441406 173.273438 " fill-opacity="1" fill-rule="nonzero"/></g></g></g><g clip-path="url(#e8f67bde1e)"><g clip-path="url(#8b84bdc2ad)"><g clip-path="url(#27cfe29bb5)"><path fill="#bababa" d="M 208.890625 133.359375 L 196.832031 126.292969 C 195.742188 125.652344 195.375 124.25 196.011719 123.160156 L 203.082031 111.097656 C 203.71875 110.007812 205.121094 109.640625 206.214844 110.28125 L 218.273438 117.347656 C 219.363281 117.988281 219.730469 119.390625 219.089844 120.480469 L 212.023438 132.539062 C 211.386719 133.628906 209.984375 133.996094 208.890625 133.359375 Z M 208.890625 133.359375 " fill-opacity="1" fill-rule="nonzero"/></g></g></g><g clip-path="url(#0fe66f318c)"><g clip-path="url(#c5c7d237df)"><g clip-path="url(#21060b64f4)"><path fill="#bababa" d="M 229.28125 145.304688 L 217.21875 138.238281 C 216.128906 137.601562 215.761719 136.199219 216.402344 135.105469 L 223.46875 123.046875 C 224.109375 121.957031 225.511719 121.589844 226.601562 122.230469 L 238.660156 129.296875 C 239.75 129.933594 240.121094 131.335938 239.480469 132.429688 L 232.414062 144.488281 C 231.773438 145.578125 230.371094 145.945312 229.28125 145.304688 Z M 229.28125 145.304688 " fill-opacity="1" fill-rule="nonzero"/></g></g></g><g clip-path="url(#8d9ac77199)"><g clip-path="url(#407d89ea08)"><g clip-path="url(#17c9dd8562)"><path fill="#bababa" d="M 249.667969 157.253906 L 237.605469 150.1875 C 236.515625 149.546875 236.148438 148.144531 236.789062 147.054688 L 243.855469 134.992188 C 244.496094 133.902344 245.898438 133.535156 246.988281 134.175781 L 259.046875 141.242188 C 260.136719 141.882812 260.507812 143.285156 259.867188 144.375 L 252.800781 156.433594 C 252.160156 157.523438 250.757812 157.890625 249.667969 157.253906 Z M 249.667969 157.253906 " fill-opacity="1" fill-rule="nonzero"/></g></g></g><g clip-path="url(#1f98a23d34)"><g clip-path="url(#90e0c710ad)"><g clip-path="url(#8eb91283b8)"><path fill="#bababa" d="M 270.054688 169.199219 L 257.992188 162.132812 C 256.902344 161.496094 256.535156 160.09375 257.175781 159 L 264.242188 146.941406 C 264.882812 145.851562 266.285156 145.484375 267.375 146.121094 L 279.433594 153.191406 C 280.523438 153.828125 280.894531 155.230469 280.253906 156.324219 L 273.1875 168.382812 C 272.546875 169.46875 271.144531 169.839844 270.054688 169.199219 Z M 270.054688 169.199219 " fill-opacity="1" fill-rule="nonzero"/></g></g></g><g clip-path="url(#63a4220c1b)"><g clip-path="url(#080ae95a0e)"><g clip-path="url(#6a3740ddf6)"><path fill="#bababa" d="M 290.441406 181.148438 L 278.378906 174.078125 C 277.289062 173.441406 276.921875 172.039062 277.5625 170.945312 L 284.628906 158.886719 C 285.269531 157.796875 286.671875 157.429688 287.761719 158.070312 L 299.820312 165.136719 C 300.910156 165.773438 301.28125 167.175781 300.640625 168.269531 L 293.574219 180.328125 C 292.933594 181.417969 291.53125 181.785156 290.441406 181.148438 Z M 290.441406 181.148438 " fill-opacity="1" fill-rule="nonzero"/></g></g></g><g clip-path="url(#28a98b0d89)"><g clip-path="url(#cd188c0d45)"><g clip-path="url(#6356c99acb)"><path fill="#bababa" d="M 310.828125 193.09375 L 298.765625 186.027344 C 297.675781 185.386719 297.308594 183.984375 297.949219 182.894531 L 305.015625 170.835938 C 305.65625 169.746094 307.058594 169.375 308.148438 170.015625 L 320.207031 177.082031 C 321.296875 177.722656 321.667969 179.125 321.027344 180.214844 L 313.960938 192.277344 C 313.320312 193.367188 311.917969 193.730469 310.828125 193.09375 Z M 310.828125 193.09375 " fill-opacity="1" fill-rule="nonzero"/></g></g></g><g clip-path="url(#35c944bd99)"><g clip-path="url(#6fe3a1385a)"><g clip-path="url(#be12ebf706)"><path fill="#bababa" d="M 197.277344 153.175781 L 185.21875 146.109375 C 184.128906 145.46875 183.761719 144.066406 184.398438 142.976562 L 191.46875 130.917969 C 192.105469 129.828125 193.507812 129.457031 194.601562 130.097656 L 206.660156 137.164062 C 207.75 137.804688 208.117188 139.207031 207.476562 140.296875 L 200.410156 152.359375 C 199.769531 153.449219 198.371094 153.816406 197.277344 153.175781 Z M 197.277344 153.175781 " fill-opacity="1" fill-rule="nonzero"/></g></g></g><g clip-path="url(#0c389c6e0a)"><g clip-path="url(#05457383b4)"><g clip-path="url(#788ca2b6ce)"><path fill="#bababa" d="M 217.667969 165.125 L 205.605469 158.058594 C 204.515625 157.417969 204.148438 156.015625 204.789062 154.925781 L 211.855469 142.863281 C 212.496094 141.773438 213.898438 141.40625 214.988281 142.046875 L 227.046875 149.113281 C 228.136719 149.753906 228.507812 151.15625 227.867188 152.246094 L 220.800781 164.304688 C 220.15625 165.394531 218.757812 165.761719 217.667969 165.125 Z M 217.667969 165.125 " fill-opacity="1" fill-rule="nonzero"/></g></g></g><g clip-path="url(#930c6a8a35)"><g clip-path="url(#3a8d9b7535)"><g clip-path="url(#be0cfd143a)"><path fill="#bababa" d="M 238.054688 177.070312 L 225.992188 170.003906 C 224.902344 169.363281 224.535156 167.960938 225.175781 166.871094 L 232.242188 154.8125 C 232.882812 153.722656 234.285156 153.355469 235.375 153.992188 L 247.433594 161.058594 C 248.523438 161.699219 248.894531 163.101562 248.253906 164.191406 L 241.1875 176.253906 C 240.542969 177.34375 239.144531 177.707031 238.054688 177.070312 Z M 238.054688 177.070312 " fill-opacity="1" fill-rule="nonzero"/></g></g></g><g clip-path="url(#6dca81e1a6)"><g clip-path="url(#63a4894215)"><g clip-path="url(#69717d6428)"><path fill="#bababa" d="M 258.441406 189.015625 L 246.378906 181.949219 C 245.292969 181.3125 244.921875 179.910156 245.5625 178.816406 L 252.628906 166.757812 C 253.269531 165.667969 254.671875 165.300781 255.761719 165.941406 L 267.820312 173.007812 C 268.910156 173.644531 269.28125 175.046875 268.640625 176.140625 L 261.574219 188.199219 C 260.929688 189.289062 259.53125 189.65625 258.441406 189.015625 Z M 258.441406 189.015625 " fill-opacity="1" fill-rule="nonzero"/></g></g></g><g clip-path="url(#d370760455)"><g clip-path="url(#438fdd7b00)"><g clip-path="url(#229461785c)"><path fill="#bababa" d="M 278.828125 200.964844 L 266.765625 193.898438 C 265.679688 193.257812 265.308594 191.855469 265.949219 190.765625 L 273.015625 178.703125 C 273.65625 177.617188 275.058594 177.246094 276.148438 177.886719 L 288.207031 184.953125 C 289.296875 185.59375 289.667969 186.996094 289.027344 188.085938 L 281.960938 200.144531 C 281.320312 201.238281 279.917969 201.601562 278.828125 200.964844 Z M 278.828125 200.964844 " fill-opacity="1" fill-rule="nonzero"/></g></g></g><g clip-path="url(#08c5b34509)"><g clip-path="url(#031f3edf15)"><g clip-path="url(#8525b05eb5)"><path fill="#bababa" d="M 299.214844 212.910156 L 287.152344 205.84375 C 286.066406 205.207031 285.695312 203.804688 286.335938 202.710938 L 293.402344 190.652344 C 294.042969 189.5625 295.445312 189.195312 296.535156 189.832031 L 308.59375 196.902344 C 309.683594 197.539062 310.054688 198.941406 309.414062 200.035156 L 302.347656 212.09375 C 301.707031 213.183594 300.304688 213.550781 299.214844 212.910156 Z M 299.214844 212.910156 " fill-opacity="1" fill-rule="nonzero"/></g></g></g><g clip-path="url(#53f811864c)"><g clip-path="url(#6982559734)"><g clip-path="url(#54cc3354a3)"><path fill="#bababa" d="M 185.023438 174.085938 L 172.964844 167.019531 C 171.875 166.378906 171.507812 164.976562 172.148438 163.886719 L 179.214844 151.824219 C 179.851562 150.734375 181.253906 150.367188 182.347656 151.007812 L 194.40625 158.074219 C 195.496094 158.714844 195.863281 160.117188 195.222656 161.207031 L 188.15625 173.265625 C 187.515625 174.359375 186.117188 174.722656 185.023438 174.085938 Z M 185.023438 174.085938 " fill-opacity="1" fill-rule="nonzero"/></g></g></g><g clip-path="url(#479d7a91e5)"><g clip-path="url(#14825b516c)"><g clip-path="url(#bf10d36645)"><path fill="#bababa" d="M 205.414062 186.03125 L 193.355469 178.964844 C 192.265625 178.328125 191.898438 176.925781 192.535156 175.832031 L 199.601562 163.773438 C 200.242188 162.683594 201.644531 162.316406 202.734375 162.957031 L 214.796875 170.023438 C 215.886719 170.660156 216.253906 172.0625 215.613281 173.15625 L 208.546875 185.214844 C 207.902344 186.304688 206.503906 186.671875 205.414062 186.03125 Z M 205.414062 186.03125 " fill-opacity="1" fill-rule="nonzero"/></g></g></g><g clip-path="url(#c8ca01f6cd)"><g clip-path="url(#307b625ee0)"><g clip-path="url(#539802cdf1)"><path fill="#bababa" d="M 225.800781 197.980469 L 213.742188 190.914062 C 212.652344 190.273438 212.285156 188.871094 212.921875 187.78125 L 219.988281 175.71875 C 220.628906 174.632812 222.03125 174.261719 223.121094 174.902344 L 235.183594 181.96875 C 236.273438 182.609375 236.640625 184.011719 236 185.101562 L 228.933594 197.160156 C 228.289062 198.253906 226.890625 198.617188 225.800781 197.980469 Z M 225.800781 197.980469 " fill-opacity="1" fill-rule="nonzero"/></g></g></g><g clip-path="url(#8beaf248e2)"><g clip-path="url(#cf1c27aa42)"><g clip-path="url(#2eba62796c)"><path fill="#bababa" d="M 246.1875 209.925781 L 234.128906 202.859375 C 233.039062 202.222656 232.671875 200.820312 233.308594 199.726562 L 240.375 187.667969 C 241.015625 186.578125 242.417969 186.210938 243.507812 186.847656 L 255.570312 193.917969 C 256.660156 194.554688 257.027344 195.957031 256.386719 197.050781 L 249.320312 209.109375 C 248.675781 210.199219 247.277344 210.566406 246.1875 209.925781 Z M 246.1875 209.925781 " fill-opacity="1" fill-rule="nonzero"/></g></g></g><g clip-path="url(#391d52e5b8)"><g clip-path="url(#44d3abcf21)"><g clip-path="url(#e1f1baf86f)"><path fill="#bababa" d="M 266.574219 221.875 L 254.515625 214.804688 C 253.425781 214.167969 253.058594 212.765625 253.695312 211.671875 L 260.761719 199.613281 C 261.402344 198.523438 262.804688 198.15625 263.894531 198.796875 L 275.957031 205.863281 C 277.046875 206.5 277.414062 207.902344 276.773438 208.996094 L 269.707031 221.054688 C 269.066406 222.148438 267.664062 222.511719 266.574219 221.875 Z M 266.574219 221.875 " fill-opacity="1" fill-rule="nonzero"/></g></g></g><g clip-path="url(#37bbc0aecb)"><g clip-path="url(#a71edbe0e3)"><g clip-path="url(#3e43ab100d)"><path fill="#bababa" d="M 286.960938 233.820312 L 274.902344 226.753906 C 273.8125 226.113281 273.445312 224.710938 274.082031 223.621094 L 281.148438 211.5625 C 281.789062 210.472656 283.191406 210.101562 284.28125 210.742188 L 296.34375 217.808594 C 297.433594 218.449219 297.800781 219.851562 297.160156 220.941406 L 290.09375 233.003906 C 289.453125 234.09375 288.050781 234.457031 286.960938 233.820312 Z M 286.960938 233.820312 " fill-opacity="1" fill-rule="nonzero"/></g></g></g><g clip-path="url(#411c33d791)"><g clip-path="url(#a8e8d74ebc)"><g clip-path="url(#6e90ce5cce)"><g clip-path="url(#d3ca7a6c20)"><path fill="#d99e82" d="M 253.59375 88.722656 C 255.371094 95.351562 259.152344 107.578125 260.019531 112.589844 C 260.714844 116.640625 261.507812 120.648438 260.945312 123.125 C 260.378906 125.601562 257.71875 127.109375 255.179688 126.535156 C 255.179688 126.535156 245.867188 126.207031 241.6875 124.75 C 237.292969 124.257812 228.746094 120.5 228.746094 120.5 C 226.203125 119.921875 224.460938 117.414062 225.023438 114.933594 C 225.59375 112.457031 228.046875 109.1875 230.429688 105.839844 C 233.382812 101.699219 242.097656 92.328125 246.574219 87.121094 C 247.339844 86.234375 253.285156 87.589844 253.59375 88.722656 Z M 253.59375 88.722656 " fill-opacity="1" fill-rule="nonzero"/></g></g></g></g><g clip-path="url(#0167ac8443)"><g clip-path="url(#e9587d06b2)"><g clip-path="url(#4671c38165)"><g clip-path="url(#6bdc05e4a3)"><path fill="#ea596e" d="M 243.546875 199.386719 C 244.675781 194.429688 241.578125 189.5 236.621094 188.367188 L 218.675781 184.273438 C 213.722656 183.144531 208.785156 186.246094 207.65625 191.195312 L 203.5625 209.144531 C 202.433594 214.097656 205.535156 219.03125 210.488281 220.164062 L 228.429688 224.257812 C 233.382812 225.390625 238.316406 222.289062 239.449219 217.332031 Z M 243.546875 199.386719 " fill-opacity="1" fill-rule="nonzero"/></g></g></g></g><g clip-path="url(#78e4b9042f)"><g clip-path="url(#13a40fe966)"><g clip-path="url(#d2acb70d4a)"><g clip-path="url(#28df8edb3f)"><path fill="#ffcc4d" d="M 260.945312 123.125 L 242.988281 119.03125 L 225.058594 114.933594 L 209.703125 182.226562 L 245.59375 190.414062 Z M 260.945312 123.125 " fill-opacity="1" fill-rule="nonzero"/></g></g></g></g><g clip-path="url(#0c25e34a41)"><g clip-path="url(#fc23035d78)"><g clip-path="url(#16b1cc444a)"><g clip-path="url(#00f2990bd5)"><path fill="#292f33" d="M 243.34375 90.867188 C 243.34375 90.867188 248.03125 82.425781 251.183594 83.144531 C 254.335938 83.863281 254.867188 93.5 254.867188 93.5 C 254.867188 93.5 248.003906 97.636719 243.34375 90.867188 Z M 243.34375 90.867188 " fill-opacity="1" fill-rule="nonzero"/></g></g></g></g><g clip-path="url(#c20a8a1329)"><g clip-path="url(#8009665774)"><g clip-path="url(#ca5497cb0c)"><g clip-path="url(#4496af6d03)"><path fill="#ccd6dd" d="M 204.585938 204.65625 L 240.476562 212.84375 L 245.589844 190.417969 L 209.703125 182.226562 Z M 204.585938 204.65625 " fill-opacity="1" fill-rule="nonzero"/></g></g></g></g><g clip-path="url(#7b67295679)"><g clip-path="url(#11eae04823)"><g clip-path="url(#271be533ea)"><g clip-path="url(#e8f8523061)"><path fill="#99aab5" d="M 205.613281 200.171875 L 241.496094 208.359375 L 242.523438 203.875 L 206.636719 195.6875 Z M 207.652344 191.195312 L 243.542969 199.382812 L 244.566406 194.898438 L 208.679688 186.710938 Z M 207.652344 191.195312 " fill-opacity="1" fill-rule="nonzero"/></g></g></g></g><g clip-path="url(#11f49f6455)"><g clip-path="url(#457c221a07)"><g clip-path="url(#1619b42728)"><path fill="#4e5859" d="M 203.375 206.980469 C 203.449219 207.121094 203.523438 207.296875 203.59375 207.453125 C 203.640625 207.628906 203.699219 207.800781 203.726562 207.984375 C 203.742188 208.171875 203.785156 208.351562 203.765625 208.550781 C 203.753906 209.332031 203.492188 210.1875 203 211.042969 C 202.496094 211.894531 201.78125 212.742188 200.890625 213.492188 C 200.675781 213.683594 200.433594 213.859375 200.203125 214.039062 C 199.960938 214.207031 199.714844 214.378906 199.464844 214.539062 L 199.082031 214.769531 C 198.953125 214.84375 198.820312 214.925781 198.71875 214.980469 L 198.0625 215.34375 L 195.4375 216.800781 C 193.691406 217.769531 191.941406 218.742188 190.1875 219.703125 L 184.925781 222.59375 L 179.65625 225.464844 C 172.628906 229.292969 165.578125 233.074219 158.484375 236.789062 C 155.890625 238.328125 153.285156 239.855469 150.679688 241.378906 L 148.726562 242.519531 C 148.023438 242.921875 147.277344 243.261719 146.527344 243.507812 C 145.777344 243.753906 145.019531 243.914062 144.308594 243.964844 C 143.597656 244.011719 142.933594 243.960938 142.347656 243.808594 C 141.761719 243.65625 141.257812 243.40625 140.871094 243.070312 L 140.597656 242.800781 L 140.378906 242.5 C 140.246094 242.300781 140.140625 242.113281 140.019531 241.921875 L 138.636719 239.613281 L 135.894531 234.984375 L 133.183594 230.34375 L 130.511719 225.675781 C 128.726562 222.566406 126.996094 219.429688 125.304688 216.265625 L 120.328125 206.726562 L 117.847656 201.953125 L 115.308594 197.210938 C 113.582031 194.070312 111.828125 190.945312 110.023438 187.84375 L 108.671875 185.519531 L 107.296875 183.210938 L 104.539062 178.589844 C 102.695312 175.515625 100.824219 172.453125 99.003906 169.367188 C 97.175781 166.28125 95.378906 163.175781 93.589844 160.070312 L 92.582031 158.324219 C 92.554688 158.273438 92.527344 158.234375 92.5 158.175781 L 92.414062 157.996094 C 92.359375 157.875 92.300781 157.757812 92.269531 157.625 C 91.941406 156.601562 92.226562 155.300781 93.015625 154.035156 C 93.40625 153.402344 93.925781 152.773438 94.539062 152.1875 C 95.15625 151.601562 95.875 151.0625 96.636719 150.601562 L 96.925781 150.425781 C 97.019531 150.371094 97.09375 150.332031 97.175781 150.28125 L 97.667969 150.003906 L 100.621094 148.328125 C 103.246094 146.835938 105.875 145.359375 108.507812 143.882812 L 116.398438 139.449219 C 121.675781 136.515625 126.9375 133.5625 132.21875 130.644531 L 140.140625 126.257812 L 144.105469 124.074219 L 146.085938 122.984375 C 146.425781 122.796875 146.726562 122.625 147.101562 122.429688 C 147.292969 122.332031 147.484375 122.230469 147.675781 122.136719 L 148.265625 121.878906 C 149.847656 121.238281 151.476562 120.972656 152.792969 121.15625 C 154.113281 121.328125 158.023438 127.617188 158.023438 127.617188 C 158.855469 129.203125 159.65625 130.8125 160.464844 132.414062 C 161.269531 134.015625 168.097656 145.195312 170.558594 149.265625 C 170.558594 149.265625 181.78125 170.214844 184.042969 174.398438 C 185.179688 176.484375 193.796875 190.726562 195.023438 192.761719 C 196.261719 194.792969 197.464844 196.84375 198.660156 198.894531 L 202.257812 205.050781 L 203.15625 206.59375 Z M 203.375 206.980469 " fill-opacity="1" fill-rule="nonzero"/></g></g></g><g clip-path="url(#49b19cc467)"><g clip-path="url(#614833ca77)"><g clip-path="url(#465e5ea52e)"><path fill="#87a9ad" d="M 151.683594 136.238281 C 151.757812 136.199219 151.851562 136.152344 151.933594 136.109375 C 152.019531 136.070312 152.105469 136.03125 152.191406 135.996094 C 152.28125 135.964844 152.367188 135.929688 152.457031 135.90625 C 152.808594 135.800781 153.160156 135.753906 153.480469 135.773438 C 153.796875 135.796875 154.082031 135.878906 154.296875 136.027344 C 154.355469 136.058594 154.398438 136.105469 154.449219 136.144531 C 154.492188 136.1875 154.535156 136.234375 154.574219 136.28125 L 154.625 136.359375 C 154.640625 136.386719 154.65625 136.410156 154.667969 136.433594 L 154.742188 136.566406 L 155.035156 137.105469 C 155.230469 137.464844 155.425781 137.824219 155.617188 138.1875 L 156.191406 139.269531 L 156.757812 140.359375 C 157.507812 141.8125 159.59375 145.808594 159.921875 146.335938 L 160.164062 146.730469 C 160.246094 146.871094 160.296875 147.035156 160.304688 147.210938 C 160.3125 147.390625 160.277344 147.582031 160.199219 147.777344 C 160.121094 147.972656 160.003906 148.167969 159.851562 148.355469 C 159.703125 148.542969 159.515625 148.71875 159.308594 148.878906 L 159.148438 148.992188 L 158.980469 149.097656 C 158.871094 149.164062 158.773438 149.21875 158.667969 149.28125 L 157.421875 149.996094 L 154.933594 151.425781 L 152.4375 152.847656 L 149.941406 154.257812 C 148.273438 155.203125 146.601562 156.136719 144.925781 157.058594 L 139.886719 159.8125 L 137.367188 161.1875 L 134.855469 162.574219 C 133.179688 163.503906 131.511719 164.441406 129.847656 165.386719 L 128.601562 166.097656 L 127.355469 166.8125 L 124.867188 168.242188 C 123.210938 169.199219 121.554688 170.160156 119.894531 171.109375 C 118.234375 172.0625 116.570312 173.007812 114.902344 173.953125 L 114.28125 174.304688 L 113.96875 174.484375 C 113.941406 174.5 113.917969 174.511719 113.886719 174.527344 L 113.792969 174.578125 C 113.730469 174.609375 113.667969 174.644531 113.605469 174.671875 C 113.09375 174.90625 112.542969 175.011719 112.078125 174.964844 C 111.84375 174.941406 111.632812 174.882812 111.449219 174.792969 C 111.269531 174.699219 111.128906 174.570312 111.023438 174.421875 L 110.984375 174.363281 C 110.972656 174.34375 110.964844 174.328125 110.957031 174.3125 L 110.898438 174.210938 L 110.78125 174.011719 L 110.550781 173.609375 C 110.242188 173.078125 109.941406 172.539062 109.636719 172 L 108.730469 170.386719 C 108.136719 169.304688 107.535156 168.230469 106.953125 167.144531 L 106.070312 165.515625 L 105.636719 164.699219 L 105.417969 164.289062 C 105.382812 164.21875 105.34375 164.160156 105.308594 164.082031 C 105.292969 164.039062 105.273438 164 105.257812 163.957031 L 105.222656 163.828125 C 105.152344 163.46875 105.261719 163.042969 105.527344 162.648438 C 105.792969 162.25 106.21875 161.882812 106.683594 161.628906 L 109.203125 160.253906 C 110.042969 159.796875 110.886719 159.34375 111.730469 158.890625 C 112.570312 158.433594 113.414062 157.980469 114.257812 157.53125 C 116.425781 156.207031 118.617188 154.925781 120.816406 153.65625 L 122.464844 152.710938 L 124.121094 151.769531 C 125.222656 151.140625 126.332031 150.527344 127.445312 149.917969 C 129.671875 148.703125 131.925781 147.527344 134.144531 146.300781 C 135.253906 145.683594 136.359375 145.0625 137.460938 144.433594 L 138.285156 143.960938 L 139.109375 143.480469 L 140.753906 142.523438 C 141.851562 141.882812 142.941406 141.238281 144.042969 140.605469 C 145.140625 139.96875 146.242188 139.339844 147.34375 138.710938 L 150.648438 136.824219 Z M 151.683594 136.238281 " fill-opacity="1" fill-rule="nonzero"/></g></g></g><g clip-path="url(#8c9140089d)"><g clip-path="url(#1fa5241b10)"><g clip-path="url(#bdf4071fd2)"><path fill="#8ddbe0" d="M 128.753906 190.425781 L 126.53125 191.671875 C 124.445312 192.84375 121.804688 192.101562 120.632812 190.015625 L 119.386719 187.796875 C 118.210938 185.707031 118.953125 183.066406 121.042969 181.894531 L 123.261719 180.648438 C 125.347656 179.476562 127.992188 180.21875 129.164062 182.304688 L 130.410156 184.523438 C 131.582031 186.609375 130.839844 189.253906 128.753906 190.425781 Z M 143.144531 177.371094 L 141.898438 175.152344 C 140.722656 173.066406 138.082031 172.324219 135.996094 173.496094 L 133.777344 174.742188 C 131.6875 175.914062 130.945312 178.558594 132.117188 180.644531 L 133.367188 182.863281 C 134.539062 184.949219 137.179688 185.691406 139.265625 184.519531 L 141.488281 183.273438 C 143.574219 182.101562 144.316406 179.460938 143.144531 177.371094 Z M 155.878906 170.222656 L 154.628906 168 C 153.457031 165.914062 150.816406 165.171875 148.730469 166.34375 L 146.507812 167.589844 C 144.421875 168.761719 143.679688 171.40625 144.851562 173.492188 L 146.101562 175.710938 C 147.273438 177.800781 149.914062 178.539062 152 177.367188 L 154.222656 176.121094 C 156.308594 174.949219 157.050781 172.308594 155.878906 170.222656 Z M 137.5625 197.257812 L 136.316406 195.039062 C 135.140625 192.949219 132.5 192.210938 130.414062 193.382812 L 128.191406 194.628906 C 126.105469 195.800781 125.363281 198.441406 126.535156 200.53125 L 127.785156 202.75 C 128.957031 204.835938 131.597656 205.578125 133.683594 204.40625 L 135.90625 203.160156 C 137.992188 201.988281 138.734375 199.34375 137.5625 197.257812 Z M 150.296875 190.105469 L 149.046875 187.886719 C 147.875 185.800781 145.234375 185.058594 143.148438 186.230469 L 140.925781 187.476562 C 138.839844 188.648438 138.097656 191.289062 139.269531 193.378906 L 140.519531 195.597656 C 141.691406 197.683594 144.332031 198.425781 146.417969 197.253906 L 148.640625 196.007812 C 150.726562 194.835938 151.46875 192.191406 150.296875 190.105469 Z M 163.027344 182.953125 L 161.78125 180.734375 C 160.609375 178.648438 157.96875 177.90625 155.882812 179.078125 L 153.660156 180.324219 C 151.574219 181.496094 150.832031 184.140625 152.003906 186.226562 L 153.25 188.445312 C 154.421875 190.53125 157.066406 191.273438 159.152344 190.101562 L 161.371094 188.855469 C 163.460938 187.683594 164.203125 185.042969 163.027344 182.953125 Z M 144.714844 209.992188 L 143.464844 207.773438 C 142.292969 205.683594 139.652344 204.941406 137.566406 206.113281 L 135.34375 207.363281 C 133.257812 208.535156 132.515625 211.175781 133.6875 213.261719 L 134.933594 215.484375 C 136.109375 217.570312 138.75 218.3125 140.835938 217.140625 L 143.058594 215.894531 C 145.144531 214.71875 145.886719 212.078125 144.714844 209.992188 Z M 157.445312 202.839844 L 156.199219 200.621094 C 155.027344 198.53125 152.386719 197.792969 150.300781 198.964844 L 148.078125 200.210938 C 145.992188 201.382812 145.25 204.023438 146.421875 206.109375 L 147.667969 208.332031 C 148.839844 210.417969 151.484375 211.160156 153.570312 209.988281 L 155.789062 208.742188 C 157.878906 207.570312 158.621094 204.925781 157.445312 202.839844 Z M 170.179688 195.6875 L 168.933594 193.46875 C 167.761719 191.382812 165.121094 190.640625 163.03125 191.8125 L 160.8125 193.058594 C 158.726562 194.230469 157.984375 196.871094 159.15625 198.960938 L 160.402344 201.179688 C 161.574219 203.265625 164.21875 204.007812 166.304688 202.835938 L 168.523438 201.589844 C 170.609375 200.417969 171.351562 197.773438 170.179688 195.6875 Z M 151.148438 221.453125 L 149.902344 219.230469 C 148.730469 217.144531 146.089844 216.402344 144 217.574219 L 141.78125 218.824219 C 139.695312 219.996094 138.953125 222.636719 140.125 224.722656 L 141.371094 226.945312 C 142.542969 229.03125 145.1875 229.773438 147.273438 228.601562 L 149.492188 227.351562 C 151.582031 226.179688 152.320312 223.539062 151.148438 221.453125 Z M 163.882812 214.300781 L 162.636719 212.082031 C 161.464844 209.992188 158.824219 209.25 156.734375 210.421875 L 154.515625 211.671875 C 152.429688 212.84375 151.6875 215.484375 152.859375 217.570312 L 154.105469 219.792969 C 155.277344 221.878906 157.921875 222.621094 160.007812 221.449219 L 162.226562 220.203125 C 164.3125 219.03125 165.054688 216.386719 163.882812 214.300781 Z M 163.882812 214.300781 " fill-opacity="1" fill-rule="nonzero"/></g></g></g><g clip-path="url(#9d7feb0fc9)"><g clip-path="url(#7290b7b958)"><g clip-path="url(#7bf4b802d0)"><path fill="#ffffff" d="M 166.953125 168.96875 L 164.734375 170.21875 C 162.648438 171.390625 160.003906 170.648438 158.832031 168.5625 L 157.585938 166.339844 C 156.414062 164.253906 157.15625 161.613281 159.242188 160.4375 L 161.464844 159.191406 C 163.550781 158.019531 166.191406 158.761719 167.363281 160.847656 L 168.609375 163.070312 C 169.785156 165.15625 169.042969 167.796875 166.953125 168.96875 Z M 175.761719 175.804688 L 174.515625 173.582031 C 173.34375 171.496094 170.703125 170.753906 168.613281 171.925781 L 166.394531 173.171875 C 164.308594 174.34375 163.566406 176.988281 164.738281 179.074219 L 165.984375 181.292969 C 167.15625 183.382812 169.800781 184.121094 171.886719 182.949219 L 174.105469 181.703125 C 176.191406 180.53125 176.933594 177.890625 175.761719 175.804688 Z M 182.914062 188.535156 L 181.667969 186.316406 C 180.496094 184.230469 177.855469 183.488281 175.765625 184.660156 L 173.546875 185.90625 C 171.460938 187.078125 170.71875 189.722656 171.890625 191.808594 L 173.136719 194.027344 C 174.308594 196.113281 176.949219 196.855469 179.039062 195.683594 L 181.257812 194.4375 C 183.34375 193.265625 184.085938 190.625 182.914062 188.535156 Z M 176.617188 207.148438 L 175.371094 204.929688 C 174.199219 202.839844 171.554688 202.101562 169.46875 203.273438 L 167.25 204.519531 C 165.164062 205.691406 164.421875 208.332031 165.59375 210.421875 L 166.839844 212.640625 C 168.011719 214.726562 170.652344 215.46875 172.742188 214.296875 L 174.960938 213.050781 C 177.046875 211.878906 177.789062 209.234375 176.617188 207.148438 Z M 189.351562 199.996094 L 188.105469 197.777344 C 186.933594 195.691406 184.289062 194.949219 182.203125 196.121094 L 179.984375 197.367188 C 177.894531 198.539062 177.15625 201.179688 178.328125 203.269531 L 179.574219 205.488281 C 180.746094 207.574219 183.386719 208.316406 185.472656 207.144531 L 187.695312 205.898438 C 189.78125 204.726562 190.523438 202.085938 189.351562 199.996094 Z M 149.039062 231.773438 C 145.074219 233.152344 138.972656 235.460938 142.507812 238.484375 C 144.628906 240.300781 151.160156 236.460938 154.082031 234.765625 C 156.652344 233.273438 160.441406 230.855469 159.875 229.316406 C 159.246094 227.597656 152.882812 230.433594 149.039062 231.773438 Z M 97.023438 157.554688 C 96.839844 160.21875 102.152344 168.855469 103.554688 167.582031 C 105.457031 165.859375 102.546875 160.050781 103.125 157.140625 C 103.828125 153.613281 112.832031 149.847656 112.835938 147.8125 C 112.84375 144.609375 97.359375 152.609375 97.023438 157.554688 Z M 118.148438 146.796875 C 119.109375 146.320312 120.085938 144.8125 119.558594 143.933594 C 119.0625 143.105469 117.8125 142.515625 116.316406 143.289062 C 115.175781 143.875 114.582031 145.46875 114.980469 146.167969 C 115.527344 147.121094 116.96875 147.425781 118.148438 146.796875 Z M 118.148438 146.796875 " fill-opacity="1" fill-rule="nonzero"/></g></g></g><g clip-path="url(#f3516cd6cc)"><g clip-path="url(#7f2f3c3248)"><g clip-path="url(#1d89e5fc52)"><path fill="#59524b" d="M 125.582031 188.800781 C 124.660156 187.285156 123.738281 185.769531 122.816406 184.25 C 122.375 183.527344 123.523438 182.886719 123.960938 183.609375 C 124.882812 185.125 125.804688 186.640625 126.726562 188.15625 C 127.167969 188.882812 126.019531 189.523438 125.582031 188.800781 Z M 140.515625 178.8125 C 139.988281 178.894531 139.496094 179.050781 139.03125 179.269531 C 139.214844 178.03125 139.140625 176.664062 138.140625 176.074219 C 137.453125 175.671875 136.625 175.925781 136.113281 176.484375 C 135.519531 177.132812 135.535156 178.050781 135.621094 178.867188 C 135.707031 179.699219 137.023438 179.730469 136.9375 178.890625 C 136.894531 178.476562 136.796875 177.960938 136.976562 177.570312 C 137.28125 176.90625 137.65625 177.339844 137.730469 177.828125 C 137.871094 178.714844 137.644531 179.699219 137.386719 180.539062 C 137.183594 181.195312 138.011719 181.609375 138.480469 181.183594 C 139.15625 180.574219 139.933594 180.230469 140.832031 180.089844 C 141.667969 179.957031 141.34375 178.683594 140.515625 178.8125 Z M 149.226562 171.621094 C 149.269531 171.335938 149.730469 170.179688 150.191406 170.367188 C 150.53125 170.503906 150.195312 171.328125 150.125 171.539062 C 149.960938 172.039062 150.617188 172.636719 151.082031 172.289062 C 151.351562 172.085938 151.75 171.710938 152.066406 172.003906 C 152.308594 172.226562 152.234375 172.59375 152.089844 172.84375 C 151.707031 173.511719 150.816406 173.699219 150.136719 173.882812 C 149.320312 174.101562 149.636719 175.375 150.453125 175.160156 C 151.851562 174.785156 153.648438 174.015625 153.535156 172.265625 C 153.496094 171.621094 153.09375 171.007812 152.515625 170.71875 C 152.203125 170.566406 151.890625 170.539062 151.582031 170.59375 C 151.550781 169.867188 151.242188 169.207031 150.386719 169.0625 C 148.988281 168.824219 148.078125 170.449219 147.914062 171.597656 C 147.792969 172.433594 149.109375 172.445312 149.226562 171.621094 Z M 134.140625 198.660156 C 133.910156 198.785156 133.679688 198.914062 133.449219 199.042969 C 133.734375 199.484375 134.015625 199.921875 134.296875 200.363281 C 134.757812 201.078125 133.605469 201.714844 133.152344 201.007812 C 132.867188 200.566406 132.585938 200.125 132.300781 199.683594 C 131.683594 200.023438 131.070312 200.367188 130.453125 200.707031 C 130.019531 200.949219 129.46875 200.625 129.476562 200.125 C 129.488281 199.160156 129.597656 198.199219 129.8125 197.261719 C 129.957031 196.636719 130.144531 195.820312 130.964844 195.898438 C 131.769531 195.976562 132.238281 197.15625 132.609375 197.730469 C 132.652344 197.800781 132.695312 197.867188 132.738281 197.933594 C 132.992188 197.792969 133.246094 197.652344 133.496094 197.511719 C 134.238281 197.101562 134.878906 198.246094 134.140625 198.660156 Z M 130.851562 198.984375 C 131.097656 198.847656 131.34375 198.710938 131.589844 198.574219 C 131.445312 198.347656 131.300781 198.121094 131.15625 197.898438 C 131.113281 197.832031 131.070312 197.769531 131.023438 197.703125 C 130.976562 197.96875 130.949219 198.234375 130.921875 198.425781 C 130.894531 198.609375 130.871094 198.796875 130.851562 198.984375 Z M 145.550781 190.554688 C 145.296875 190.632812 145.046875 190.738281 144.820312 190.875 C 144.71875 190.9375 144.480469 191.179688 144.3125 191.304688 C 144.386719 191.128906 144.027344 190.691406 143.960938 190.574219 C 143.910156 190.484375 143.855469 190.390625 143.804688 190.300781 C 144.324219 190.066406 144.832031 189.808594 145.320312 189.503906 C 146.039062 189.058594 145.398438 187.910156 144.679688 188.355469 C 144.050781 188.746094 143.398438 189.085938 142.707031 189.351562 C 142.320312 189.496094 142.058594 189.902344 142.292969 190.308594 C 142.53125 190.726562 142.773438 191.144531 143.011719 191.5625 C 143.203125 191.894531 143.394531 192.351562 143.734375 192.570312 C 144.339844 192.953125 144.871094 192.453125 145.335938 192.117188 C 145.898438 191.710938 147.265625 191.496094 146.839844 192.617188 C 146.496094 193.523438 145.195312 193.441406 144.421875 193.386719 C 143.574219 193.324219 143.558594 194.636719 144.398438 194.699219 C 145.476562 194.777344 146.71875 194.714844 147.539062 193.90625 C 148.191406 193.257812 148.453125 192.144531 147.992188 191.320312 C 147.507812 190.457031 146.433594 190.277344 145.550781 190.554688 Z M 155.773438 186.445312 C 154.828125 185.042969 154.832031 183.171875 155.675781 181.730469 C 156.105469 181 157.238281 181.664062 156.8125 182.394531 C 156.222656 183.398438 156.171875 185.265625 157.132812 186.128906 C 156.960938 184.839844 157.878906 183.480469 159.351562 183.511719 C 161.273438 183.550781 161.039062 186.125 160.058594 187.117188 C 158.734375 188.460938 156.738281 187.867188 155.773438 186.445312 Z M 158.652344 186.464844 C 159.183594 186.273438 159.617188 185.792969 159.511719 185.1875 C 159.398438 184.539062 158.722656 184.941406 158.507812 185.328125 C 158.292969 185.71875 158.417969 186.125 158.652344 186.464844 Z M 138.742188 208.757812 C 137.957031 209.152344 137.171875 209.550781 136.382812 209.949219 C 135.628906 210.328125 136.273438 211.476562 137.027344 211.09375 C 137.484375 210.863281 137.9375 210.632812 138.394531 210.402344 C 138.550781 210.324219 138.933594 210.054688 139.234375 209.898438 C 139.414062 210.398438 139.511719 210.984375 139.652344 211.453125 C 139.863281 212.144531 140.070312 212.835938 140.28125 213.523438 C 140.523438 214.332031 141.800781 214.019531 141.554688 213.207031 C 141.304688 212.378906 141.054688 211.550781 140.804688 210.722656 C 140.679688 210.308594 140.550781 209.894531 140.425781 209.480469 C 140.34375 209.207031 140.285156 208.863281 140.070312 208.65625 C 139.660156 208.261719 139.15625 208.546875 138.742188 208.757812 Z M 150.085938 205.839844 C 150.015625 205.351562 150.109375 204.886719 150.328125 204.476562 C 149.726562 204.324219 149.183594 203.964844 148.910156 203.386719 C 148.121094 201.730469 149.988281 200.433594 151.480469 200.890625 C 151.539062 200.90625 151.589844 200.933594 151.636719 200.960938 C 152.445312 201.265625 152.910156 202.125 152.859375 202.972656 C 153.128906 202.964844 153.394531 203.003906 153.65625 203.132812 C 155.273438 203.949219 154.6875 206.027344 153.496094 206.910156 C 152.257812 207.832031 150.332031 207.589844 150.085938 205.839844 Z M 152.1875 204.347656 C 151.691406 204.8125 150.957031 205.4375 151.527344 206.011719 C 152.171875 206.660156 153.480469 205.425781 153.34375 204.710938 C 153.257812 204.261719 152.738281 204.257812 152.1875 204.347656 Z M 151.355469 203.222656 C 151.386719 203.21875 151.417969 203.214844 151.449219 203.210938 C 151.507812 203.113281 151.550781 203.003906 151.554688 202.875 C 151.5625 202.679688 151.46875 202.238281 151.222656 202.175781 C 151.191406 202.171875 151.160156 202.167969 151.125 202.15625 C 150.714844 202.03125 149.953125 202.109375 150.074219 202.730469 C 150.183594 203.269531 150.941406 203.269531 151.355469 203.222656 Z M 165.28125 196.859375 C 164.519531 197.640625 163.472656 198.105469 162.394531 197.476562 C 160.972656 196.652344 161.453125 194.714844 162.730469 194.027344 C 164.035156 193.324219 165.628906 193.882812 166.214844 195.238281 C 166.835938 196.664062 166.703125 198.769531 165.796875 200.046875 C 165.308594 200.734375 164.175781 200.074219 164.664062 199.382812 C 165.011719 198.894531 165.308594 197.820312 165.28125 196.859375 Z M 164.789062 195.367188 C 164.609375 195.1875 164.375 195.066406 164.074219 195.042969 C 163.515625 194.992188 162.203125 195.777344 163.058594 196.34375 C 163.746094 196.796875 164.421875 195.972656 164.789062 195.367188 Z M 160.609375 214.628906 C 161.292969 215.789062 161.691406 217.742188 160.230469 218.519531 C 158.769531 219.296875 156.859375 218.109375 156.144531 216.816406 C 155.429688 215.53125 155.476562 213.683594 156.832031 212.871094 C 156.910156 212.828125 156.984375 212.800781 157.058594 212.789062 C 158.5625 212.179688 159.859375 213.355469 160.609375 214.628906 Z M 157.496094 214.023438 C 157.476562 214.035156 157.457031 214.039062 157.4375 214.046875 C 156.777344 214.488281 156.957031 215.570312 157.289062 216.171875 C 157.625 216.789062 158.808594 217.808594 159.589844 217.375 C 160.820312 216.679688 158.773438 213.375 157.496094 214.023438 Z M 172.207031 205.808594 C 170.949219 206.597656 169.675781 207.359375 168.386719 208.097656 C 167.652344 208.515625 168.292969 209.660156 169.03125 209.242188 C 170.320312 208.507812 171.59375 207.746094 172.851562 206.957031 C 173.566406 206.507812 172.925781 205.359375 172.207031 205.808594 Z M 173.507812 208.125 C 172.160156 208.734375 170.921875 209.507812 169.761719 210.421875 C 169.097656 210.945312 170.027344 211.875 170.6875 211.355469 C 171.753906 210.515625 172.914062 209.828125 174.152344 209.269531 C 174.921875 208.921875 174.273438 207.777344 173.507812 208.125 Z M 161.378906 166.316406 C 161.859375 166.042969 162.339844 165.777344 162.820312 165.507812 C 163.15625 165.972656 163.488281 166.433594 163.824219 166.894531 C 164.3125 167.570312 165.464844 166.933594 164.96875 166.25 C 164.636719 165.789062 164.304688 165.332031 163.972656 164.871094 C 164.625 164.515625 165.277344 164.160156 165.933594 163.8125 C 166.683594 163.414062 166.039062 162.269531 165.292969 162.664062 C 164.589844 163.039062 163.890625 163.414062 163.191406 163.796875 C 162.8125 163.273438 162.433594 162.746094 162.050781 162.222656 C 161.5625 161.546875 160.410156 162.179688 160.90625 162.867188 C 161.285156 163.390625 161.664062 163.914062 162.042969 164.4375 C 161.609375 164.679688 161.171875 164.921875 160.734375 165.167969 C 160 165.589844 160.644531 166.734375 161.378906 166.316406 Z M 172.738281 176.691406 C 173.464844 176.257812 172.824219 175.109375 172.097656 175.542969 C 170.832031 176.304688 169.515625 176.953125 168.136719 177.472656 C 167.355469 177.769531 167.664062 179.046875 168.453125 178.75 C 169.945312 178.1875 171.375 177.511719 172.738281 176.691406 Z M 178.125 193.167969 C 178.167969 192.390625 178.226562 191.609375 178.289062 190.832031 C 179.007812 190.867188 179.726562 190.898438 180.445312 190.929688 C 181.292969 190.96875 181.3125 189.65625 180.46875 189.617188 C 179.78125 189.585938 179.097656 189.554688 178.410156 189.523438 C 178.492188 188.699219 178.585938 187.878906 178.695312 187.054688 C 178.804688 186.21875 177.488281 186.203125 177.378906 187.035156 C 177.273438 187.84375 177.183594 188.652344 177.101562 189.464844 C 176.414062 189.433594 175.730469 189.402344 175.046875 189.371094 C 174.199219 189.332031 174.179688 190.644531 175.023438 190.683594 C 175.675781 190.714844 176.328125 190.742188 176.980469 190.773438 C 176.910156 191.5625 176.851562 192.355469 176.808594 193.144531 C 176.761719 193.992188 178.078125 194.011719 178.125 193.167969 Z M 185.835938 199.503906 C 184.332031 200.285156 182.808594 201.015625 181.257812 201.695312 C 180.484375 202.039062 181.132812 203.179688 181.902344 202.84375 C 183.449219 202.160156 184.976562 201.429688 186.480469 200.648438 C 187.230469 200.261719 186.585938 199.113281 185.835938 199.503906 Z M 147.894531 146.382812 C 147.113281 144.726562 147.152344 142.367188 148.90625 141.371094 C 148.96875 141.332031 149.03125 141.3125 149.09375 141.296875 C 151.191406 140.3125 153.03125 142.171875 154.011719 143.914062 C 154.894531 145.484375 155.402344 148.15625 153.316406 149.054688 C 151.277344 149.933594 148.75 148.191406 147.894531 146.382812 Z M 152.617188 147.910156 C 154.148438 147.496094 153.324219 145.332031 152.804688 144.445312 C 152.1875 143.398438 150.957031 141.785156 149.582031 142.523438 C 149.546875 142.542969 149.511719 142.554688 149.476562 142.566406 C 148.4375 143.238281 148.613281 144.859375 149.09375 145.84375 C 149.652344 146.984375 151.257812 148.28125 152.617188 147.910156 Z M 152.617188 147.910156 " fill-opacity="1" fill-rule="nonzero"/></g></g></g><g clip-path="url(#3623063cf3)"><path fill="#f35e58" d="M 265.65625 149.582031 L 211.574219 213.296875 L 232.636719 228.265625 L 284.933594 164.257812 L 265.65625 149.582031 " fill-opacity="1" fill-rule="nonzero"/></g><g clip-path="url(#385501ea44)"><path fill="#a6bfdc" d="M 164.203125 95.65625 L 148.3125 99.449219 L 146.277344 136.4375 L 156.289062 134.050781 L 176.753906 221.855469 L 184.972656 219.890625 L 193.1875 217.929688 L 172.71875 130.128906 L 182.726562 127.738281 L 164.203125 95.65625 " fill-opacity="1" fill-rule="nonzero"/></g><g clip-path="url(#baba9f7210)"><path fill="#a6bfdc" d="M 161.511719 225.492188 C 158.851562 226.261719 155.980469 225.574219 154.023438 223.613281 L 124.929688 194.527344 L 95.84375 165.4375 C 93.882812 163.476562 93.195312 160.605469 93.96875 157.945312 C 95.183594 153.761719 96.097656 146.832031 92.363281 139.554688 C 89.695312 134.363281 85.140625 130.390625 79.78125 128.082031 C 74.007812 125.597656 65.402344 123.753906 56.898438 128.855469 L 70.808594 142.765625 C 74.316406 146.273438 74.363281 151.945312 70.910156 155.511719 L 66.363281 160.210938 L 61.664062 164.757812 C 58.097656 168.210938 52.425781 168.164062 48.917969 164.65625 L 35.007812 150.746094 C 29.902344 159.253906 31.746094 167.855469 34.234375 173.632812 C 36.542969 178.992188 40.511719 183.546875 45.703125 186.210938 C 52.980469 189.945312 59.914062 189.03125 64.09375 187.816406 C 66.757812 187.042969 69.628906 187.730469 71.585938 189.691406 L 129.765625 247.871094 C 131.726562 249.832031 132.414062 252.699219 131.640625 255.363281 C 130.425781 259.546875 129.511719 266.476562 133.246094 273.75 C 135.910156 278.945312 140.464844 282.914062 145.824219 285.222656 C 151.601562 287.710938 160.207031 289.554688 168.710938 284.449219 L 154.800781 270.539062 C 151.292969 267.03125 151.246094 261.359375 154.699219 257.792969 L 159.246094 253.09375 L 163.945312 248.546875 C 167.507812 245.09375 173.183594 245.144531 176.691406 248.652344 L 190.601562 262.558594 C 195.703125 254.054688 193.859375 245.449219 191.375 239.675781 C 189.066406 234.3125 185.097656 229.761719 179.902344 227.097656 C 172.625 223.359375 165.695312 224.273438 161.511719 225.492188 " fill-opacity="1" fill-rule="nonzero"/></g><g clip-path="url(#23f6c60428)"><path fill="#e39514" d="M 312.421875 227.550781 L 60.417969 227.550781 C 54.992188 227.550781 50.59375 223.152344 50.59375 217.726562 L 50.59375 206.652344 L 322.246094 206.652344 L 322.246094 217.726562 C 322.246094 223.152344 317.847656 227.550781 312.421875 227.550781 " fill-opacity="1" fill-rule="nonzero"/></g><g clip-path="url(#f367d2e400)"><path fill="#e39514" d="M 291.675781 314.261719 L 81.160156 314.261719 C 70.964844 314.261719 62.695312 305.992188 62.695312 295.796875 L 62.695312 227.550781 L 310.144531 227.550781 L 310.144531 295.796875 C 310.144531 305.992188 301.878906 314.261719 291.675781 314.261719 " fill-opacity="1" fill-rule="nonzero"/></g><path fill="#d36424" d="M 62.695312 239.636719 L 310.144531 239.636719 L 310.144531 227.550781 L 62.695312 227.550781 L 62.695312 239.636719 " fill-opacity="1" fill-rule="nonzero"/><g clip-path="url(#8992bec992)"><path fill="#3d5366" d="M 262.5625 247.957031 L 253.90625 247.957031 C 249.054688 247.957031 245.121094 244.027344 245.121094 239.175781 L 245.121094 206.652344 L 271.34375 206.652344 L 271.34375 239.175781 C 271.34375 244.027344 267.414062 247.957031 262.5625 247.957031 " fill-opacity="1" fill-rule="nonzero"/></g><g clip-path="url(#f1a080a0b3)"><path fill="#3d5366" d="M 118.933594 247.957031 L 110.277344 247.957031 C 105.429688 247.957031 101.496094 244.027344 101.496094 239.175781 L 101.496094 206.652344 L 127.71875 206.652344 L 127.71875 239.175781 C 127.71875 244.027344 123.785156 247.957031 118.933594 247.957031 " fill-opacity="1" fill-rule="nonzero"/></g></svg>